{
	"patcher" : 	{
		"fileversion" : 1,
		"appversion" : 		{
			"major" : 8,
			"minor" : 0,
			"revision" : 5,
			"architecture" : "x64",
			"modernui" : 1
		}
,
		"classnamespace" : "box",
		"rect" : [ 100.0, 100.0, 708.0, 780.0 ],
		"openrect" : [ 0.0, 0.0, 708.0, 780.0 ],
		"bglocked" : 0,
		"openinpresentation" : 0,
		"default_fontsize" : 8.0,
		"default_fontface" : 0,
		"default_fontname" : "Verdana",
		"gridonopen" : 2,
		"gridsize" : [ 12.0, 12.0 ],
		"gridsnaponopen" : 2,
		"objectsnaponopen" : 0,
		"statusbarvisible" : 2,
		"toolbarvisible" : 0,
		"lefttoolbarpinned" : 0,
		"toptoolbarpinned" : 0,
		"righttoolbarpinned" : 0,
		"bottomtoolbarpinned" : 0,
		"toolbars_unpinned_last_save" : 0,
		"tallnewobj" : 0,
		"boxanimatetime" : 0,
		"enablehscroll" : 1,
		"enablevscroll" : 1,
		"devicewidth" : 0.0,
		"description" : "",
		"digest" : "",
		"tags" : "",
		"style" : "jx.style",
		"subpatcher_template" : "jx.template",
		"boxes" : [ 			{
				"box" : 				{
					"hidden" : 1,
					"id" : "obj-63",
					"maxclass" : "newobj",
					"numinlets" : 1,
					"numoutlets" : 1,
					"outlettype" : [ "" ],
					"patching_rect" : [ 600.0, 660.0, 51.0, 18.0 ],
					"saved_object_attributes" : 					{
						"filename" : "p_name",
						"parameter_enable" : 0
					}
,
					"text" : "js p_name"
				}

			}
, 			{
				"box" : 				{
					"hidden" : 1,
					"id" : "obj-28",
					"maxclass" : "newobj",
					"numinlets" : 1,
					"numoutlets" : 1,
					"outlettype" : [ "" ],
					"patcher" : 					{
						"fileversion" : 1,
						"appversion" : 						{
							"major" : 8,
							"minor" : 0,
							"revision" : 5,
							"architecture" : "x64",
							"modernui" : 1
						}
,
						"classnamespace" : "box",
						"rect" : [ 34.0, 79.0, 529.0, 243.0 ],
						"bglocked" : 0,
						"openinpresentation" : 0,
						"default_fontsize" : 8.0,
						"default_fontface" : 0,
						"default_fontname" : "Verdana",
						"gridonopen" : 2,
						"gridsize" : [ 12.0, 12.0 ],
						"gridsnaponopen" : 2,
						"objectsnaponopen" : 0,
						"statusbarvisible" : 2,
						"toolbarvisible" : 1,
						"lefttoolbarpinned" : 0,
						"toptoolbarpinned" : 0,
						"righttoolbarpinned" : 0,
						"bottomtoolbarpinned" : 0,
						"toolbars_unpinned_last_save" : 0,
						"tallnewobj" : 0,
						"boxanimatetime" : 0,
						"enablehscroll" : 1,
						"enablevscroll" : 1,
						"devicewidth" : 0.0,
						"description" : "",
						"digest" : "",
						"tags" : "",
						"style" : "jx.style",
						"subpatcher_template" : "jx.template",
						"boxes" : [ 							{
								"box" : 								{
									"comment" : "",
									"id" : "obj-2",
									"index" : 1,
									"maxclass" : "inlet",
									"numinlets" : 0,
									"numoutlets" : 1,
									"outlettype" : [ "" ],
									"patching_rect" : [ 84.0, 36.0, 24.0, 24.0 ]
								}

							}
, 							{
								"box" : 								{
									"fontname" : "Courier New",
									"fontsize" : 14.0,
									"id" : "obj-26",
									"linecount" : 7,
									"maxclass" : "comment",
									"numinlets" : 1,
									"numoutlets" : 0,
									"patching_rect" : [ 216.0, 60.0, 219.0, 118.0 ],
									"prototypename" : "jx.courier",
									"text" : "This abstraction closes other instances of the same patch. This solves the problem: a patch can be opened multiple times with the 'load' message to the pcontrol object."
								}

							}
, 							{
								"box" : 								{
									"id" : "obj-23",
									"maxclass" : "message",
									"numinlets" : 2,
									"numoutlets" : 1,
									"outlettype" : [ "" ],
									"patching_rect" : [ 108.0, 120.0, 76.0, 18.0 ],
									"text" : "send $1, dispose"
								}

							}
, 							{
								"box" : 								{
									"id" : "obj-21",
									"maxclass" : "newobj",
									"numinlets" : 1,
									"numoutlets" : 0,
									"patching_rect" : [ 108.0, 144.0, 39.0, 18.0 ],
									"text" : "forward"
								}

							}
, 							{
								"box" : 								{
									"id" : "obj-20",
									"maxclass" : "newobj",
									"numinlets" : 1,
									"numoutlets" : 2,
									"outlettype" : [ "", "" ],
									"patching_rect" : [ 84.0, 72.0, 29.5, 18.0 ],
									"text" : "t l l"
								}

							}
, 							{
								"box" : 								{
									"id" : "obj-11",
									"maxclass" : "newobj",
									"numinlets" : 1,
									"numoutlets" : 1,
									"outlettype" : [ "" ],
									"patching_rect" : [ 84.0, 96.0, 56.0, 18.0 ],
									"text" : "prepend set"
								}

							}
, 							{
								"box" : 								{
									"id" : "obj-8",
									"maxclass" : "newobj",
									"numinlets" : 1,
									"numoutlets" : 1,
									"outlettype" : [ "" ],
									"patching_rect" : [ 84.0, 120.0, 19.0, 18.0 ],
									"text" : "r"
								}

							}
, 							{
								"box" : 								{
									"comment" : "",
									"id" : "obj-27",
									"index" : 1,
									"maxclass" : "outlet",
									"numinlets" : 1,
									"numoutlets" : 0,
									"patching_rect" : [ 84.0, 180.0, 24.0, 24.0 ]
								}

							}
 ],
						"lines" : [ 							{
								"patchline" : 								{
									"destination" : [ "obj-8", 0 ],
									"source" : [ "obj-11", 0 ]
								}

							}
, 							{
								"patchline" : 								{
									"destination" : [ "obj-20", 0 ],
									"source" : [ "obj-2", 0 ]
								}

							}
, 							{
								"patchline" : 								{
									"destination" : [ "obj-11", 0 ],
									"source" : [ "obj-20", 0 ]
								}

							}
, 							{
								"patchline" : 								{
									"destination" : [ "obj-23", 0 ],
									"source" : [ "obj-20", 1 ]
								}

							}
, 							{
								"patchline" : 								{
									"destination" : [ "obj-21", 0 ],
									"source" : [ "obj-23", 0 ]
								}

							}
, 							{
								"patchline" : 								{
									"destination" : [ "obj-27", 0 ],
									"source" : [ "obj-8", 0 ]
								}

							}
 ],
						"styles" : [ 							{
								"name" : "jpatcher001",
								"default" : 								{
									"bgfillcolor" : 									{
										"type" : "color",
										"color1" : [ 0.65098, 0.666667, 0.662745, 0.64 ],
										"color2" : [ 0.0, 0.0, 0.0, 0.65 ],
										"color" : [ 0.0, 0.0, 0.0, 0.45 ],
										"angle" : 270.0,
										"proportion" : 0.39
									}
,
									"color" : [ 0.8, 0.8, 0.8, 1.0 ],
									"accentcolor" : [ 1.0, 1.0, 1.0, 0.25 ],
									"fontsize" : [ 8.0 ],
									"textcolor" : [ 0.0, 0.0, 0.0, 0.690196 ],
									"bgcolor" : [ 0.095481, 0.100396, 0.100293, 0.36 ],
									"fontname" : [ "Verdana" ],
									"patchlinecolor" : [ 0.239216, 0.254902, 0.278431, 0.45 ]
								}
,
								"parentstyle" : "",
								"multi" : 0
							}
, 							{
								"name" : "jx.style",
								"default" : 								{
									"bgfillcolor" : 									{
										"type" : "color",
										"color1" : [ 0.65098, 0.666667, 0.662745, 0.64 ],
										"color2" : [ 0.0, 0.0, 0.0, 0.65 ],
										"color" : [ 0.0, 0.0, 0.0, 0.45 ],
										"angle" : 270.0,
										"proportion" : 0.39
									}
,
									"color" : [ 0.8, 0.8, 0.8, 1.0 ],
									"accentcolor" : [ 1.0, 1.0, 1.0, 0.25 ],
									"fontsize" : [ 8.0 ],
									"textcolor" : [ 0.0, 0.0, 0.0, 0.690196 ],
									"bgcolor" : [ 0.095481, 0.100396, 0.100293, 0.36 ],
									"fontname" : [ "Verdana" ],
									"patchlinecolor" : [ 0.239216, 0.254902, 0.278431, 0.45 ]
								}
,
								"parentstyle" : "jpatcher001",
								"multi" : 0
							}
 ],
						"toolbaradditions" : [ "transport", "audiomute", "audiosolo" ],
						"toolbarexclusions" : [ "transport", "audiomute", "audiosolo" ],
						"bgcolor" : [ 0.65098, 0.666667, 0.662745, 1.0 ],
						"editing_bgcolor" : [ 0.65098, 0.666667, 0.662745, 1.0 ]
					}
,
					"patching_rect" : [ 600.0, 684.0, 77.0, 18.0 ],
					"saved_object_attributes" : 					{
						"description" : "",
						"digest" : "",
						"editing_bgcolor" : [ 0.65098, 0.666667, 0.662745, 1.0 ],
						"fontname" : "Verdana",
						"fontsize" : 8.0,
						"globalpatchername" : "",
						"locked_bgcolor" : [ 0.65098, 0.666667, 0.662745, 1.0 ],
						"style" : "jx.style",
						"tags" : ""
					}
,
					"text" : "p dispose_others"
				}

			}
, 			{
				"box" : 				{
					"hidden" : 1,
					"id" : "obj-19",
					"maxclass" : "newobj",
					"numinlets" : 1,
					"numoutlets" : 2,
					"outlettype" : [ "", "" ],
					"patching_rect" : [ 600.0, 708.0, 53.0, 18.0 ],
					"save" : [ "#N", "thispatcher", ";", "#Q", "end", ";" ],
					"text" : "thispatcher"
				}

			}
, 			{
				"box" : 				{
					"id" : "obj-15",
					"maxclass" : "ezdac~",
					"numinlets" : 2,
					"numoutlets" : 0,
					"patching_rect" : [ 60.0, 720.0, 45.0, 45.0 ]
				}

			}
, 			{
				"box" : 				{
					"clip_size" : 1,
					"display_range" : [ -70.0, 30.0 ],
					"id" : "obj-16",
					"lastchannelcount" : 0,
					"maxclass" : "live.gain~",
					"numinlets" : 2,
					"numoutlets" : 5,
					"orientation" : 1,
					"outlettype" : [ "signal", "signal", "", "float", "list" ],
					"parameter_enable" : 1,
					"patching_rect" : [ 60.0, 672.0, 147.0, 36.0 ],
					"prototypename" : "M4L.live.gain~.H.extended",
					"saved_attribute_attributes" : 					{
						"valueof" : 						{
							"parameter_mmin" : -70.0,
							"parameter_longname" : "live.gain~",
							"parameter_initial_enable" : 1,
							"parameter_mmax" : 6.0,
							"parameter_initial" : [ -24 ],
							"parameter_shortname" : "live.gain~",
							"parameter_type" : 0,
							"parameter_unitstyle" : 4,
							"parameter_linknames" : 1
						}

					}
,
					"showname" : 0,
					"varname" : "live.gain~"
				}

			}
, 			{
				"box" : 				{
					"args" : [ "jeynoise~: transform spectrum into a pdf" ],
					"bgmode" : 0,
					"border" : 0,
					"clickthrough" : 0,
					"enablehscroll" : 0,
					"enablevscroll" : 0,
					"id" : "obj-8",
					"ignoreclick" : 1,
					"lockeddragscroll" : 0,
					"maxclass" : "bpatcher",
					"name" : "title_jvkr.maxpat",
					"numinlets" : 1,
					"numoutlets" : 0,
					"offset" : [ 0.0, 0.0 ],
					"patching_rect" : [ 0.0, 0.0, 708.0, 67.0 ],
					"viewvisibility" : 1
				}

			}
, 			{
				"box" : 				{
					"id" : "obj-13",
					"maxclass" : "comment",
					"numinlets" : 1,
					"numoutlets" : 0,
					"patching_rect" : [ 180.0, 372.0, 159.0, 16.0 ],
					"text" : "pdf derived from amplitude spectrum"
				}

			}
, 			{
				"box" : 				{
					"id" : "obj-17",
					"maxclass" : "newobj",
					"numinlets" : 2,
					"numoutlets" : 1,
					"outlettype" : [ "signal" ],
					"patching_rect" : [ 312.0, 240.0, 29.5, 18.0 ],
					"text" : ">~"
				}

			}
, 			{
				"box" : 				{
					"id" : "obj-9",
					"maxclass" : "comment",
					"numinlets" : 1,
					"numoutlets" : 0,
					"patching_rect" : [ 108.0, 348.0, 244.0, 16.0 ],
					"text" : "last value represents flag: all amp values below threshold "
				}

			}
, 			{
				"box" : 				{
					"id" : "obj-69",
					"maxclass" : "newobj",
					"numinlets" : 2,
					"numoutlets" : 2,
					"outlettype" : [ "", "" ],
					"patching_rect" : [ 444.0, 240.0, 96.0, 18.0 ],
					"text" : "zl.lookup voice drums"
				}

			}
, 			{
				"box" : 				{
					"id" : "obj-68",
					"maxclass" : "live.tab",
					"num_lines_patching" : 1,
					"num_lines_presentation" : 0,
					"numinlets" : 1,
					"numoutlets" : 3,
					"outlettype" : [ "", "", "float" ],
					"parameter_enable" : 1,
					"patching_rect" : [ 444.0, 216.0, 108.0, 20.0 ],
					"saved_attribute_attributes" : 					{
						"valueof" : 						{
							"parameter_longname" : "live.tab[2]",
							"parameter_initial_enable" : 1,
							"parameter_mmax" : 1,
							"parameter_initial" : [ 0 ],
							"parameter_shortname" : "live.tab",
							"parameter_enum" : [ "cherokee", "drumloop" ],
							"parameter_type" : 2,
							"parameter_unitstyle" : 0
						}

					}
,
					"varname" : "live.tab[2]"
				}

			}
, 			{
				"box" : 				{
					"id" : "obj-62",
					"maxclass" : "comment",
					"numinlets" : 1,
					"numoutlets" : 0,
					"patching_rect" : [ 264.0, 192.0, 217.0, 16.0 ],
					"text" : "amplitude threshold above wich values are included"
				}

			}
, 			{
				"box" : 				{
					"id" : "obj-60",
					"maxclass" : "comment",
					"numinlets" : 1,
					"numoutlets" : 0,
					"patching_rect" : [ 132.0, 156.0, 298.0, 16.0 ],
					"text" : "switch between the amplitude spectrum or two slow moving sine waves"
				}

			}
, 			{
				"box" : 				{
					"id" : "obj-58",
					"linecount" : 4,
					"maxclass" : "comment",
					"numinlets" : 1,
					"numoutlets" : 0,
					"patching_rect" : [ 444.0, 384.0, 204.0, 45.0 ],
					"text" : "here the scaled outputs of two sine waves are written into a buffer; the index~ objects producese them alternatively so that they can be 'mixed' by jeyhisto~ into a pdf"
				}

			}
, 			{
				"box" : 				{
					"id" : "obj-57",
					"maxclass" : "comment",
					"numinlets" : 1,
					"numoutlets" : 0,
					"patching_rect" : [ 432.0, 564.0, 182.0, 16.0 ],
					"text" : "2: apply the amplitude values to amplitude"
				}

			}
, 			{
				"box" : 				{
					"arrows" : 2,
					"id" : "obj-56",
					"justification" : 3,
					"maxclass" : "live.line",
					"numinlets" : 1,
					"numoutlets" : 0,
					"patching_rect" : [ 336.0, 288.0, 108.0, 204.0 ]
				}

			}
, 			{
				"box" : 				{
					"id" : "obj-55",
					"maxclass" : "live.tab",
					"num_lines_patching" : 1,
					"num_lines_presentation" : 0,
					"numinlets" : 1,
					"numoutlets" : 3,
					"outlettype" : [ "", "", "float" ],
					"parameter_enable" : 1,
					"patching_rect" : [ 60.0, 156.0, 64.0, 20.0 ],
					"saved_attribute_attributes" : 					{
						"valueof" : 						{
							"parameter_longname" : "live.tab[1]",
							"parameter_mmax" : 1,
							"parameter_shortname" : "live.tab",
							"parameter_enum" : [ "1", "2" ],
							"parameter_type" : 2,
							"parameter_unitstyle" : 0
						}

					}
,
					"varname" : "live.tab[1]"
				}

			}
, 			{
				"box" : 				{
					"id" : "obj-54",
					"maxclass" : "newobj",
					"numinlets" : 3,
					"numoutlets" : 1,
					"outlettype" : [ "signal" ],
					"patching_rect" : [ 60.0, 300.0, 62.0, 18.0 ],
					"text" : "selector~ 2 1"
				}

			}
, 			{
				"box" : 				{
					"id" : "obj-52",
					"maxclass" : "newobj",
					"numinlets" : 2,
					"numoutlets" : 1,
					"outlettype" : [ "signal" ],
					"patching_rect" : [ 312.0, 264.0, 54.0, 18.0 ],
					"text" : "index~ two"
				}

			}
, 			{
				"box" : 				{
					"id" : "obj-49",
					"maxclass" : "newobj",
					"numinlets" : 1,
					"numoutlets" : 1,
					"outlettype" : [ "signal" ],
					"patching_rect" : [ 564.0, 480.0, 34.0, 18.0 ],
					"text" : "sig~ 1"
				}

			}
, 			{
				"box" : 				{
					"id" : "obj-50",
					"maxclass" : "newobj",
					"numinlets" : 3,
					"numoutlets" : 0,
					"patching_rect" : [ 540.0, 504.0, 52.0, 18.0 ],
					"text" : "poke~ two"
				}

			}
, 			{
				"box" : 				{
					"id" : "obj-48",
					"maxclass" : "newobj",
					"numinlets" : 1,
					"numoutlets" : 1,
					"outlettype" : [ "signal" ],
					"patching_rect" : [ 468.0, 480.0, 34.0, 18.0 ],
					"text" : "sig~ 0"
				}

			}
, 			{
				"box" : 				{
					"id" : "obj-47",
					"maxclass" : "newobj",
					"numinlets" : 6,
					"numoutlets" : 1,
					"outlettype" : [ "signal" ],
					"patching_rect" : [ 540.0, 456.0, 91.0, 18.0 ],
					"text" : "scale~ -1 1 0.02 0.5"
				}

			}
, 			{
				"box" : 				{
					"id" : "obj-46",
					"maxclass" : "newobj",
					"numinlets" : 3,
					"numoutlets" : 0,
					"patching_rect" : [ 444.0, 504.0, 52.0, 18.0 ],
					"text" : "poke~ two"
				}

			}
, 			{
				"box" : 				{
					"id" : "obj-45",
					"maxclass" : "newobj",
					"numinlets" : 1,
					"numoutlets" : 2,
					"outlettype" : [ "float", "bang" ],
					"patching_rect" : [ 444.0, 528.0, 101.0, 18.0 ],
					"text" : "buffer~ two @samps 2"
				}

			}
, 			{
				"box" : 				{
					"id" : "obj-44",
					"maxclass" : "newobj",
					"numinlets" : 6,
					"numoutlets" : 1,
					"outlettype" : [ "signal" ],
					"patching_rect" : [ 444.0, 456.0, 86.0, 18.0 ],
					"text" : "scale~ -1 1 0.1 0.6"
				}

			}
, 			{
				"box" : 				{
					"id" : "obj-38",
					"maxclass" : "newobj",
					"numinlets" : 1,
					"numoutlets" : 1,
					"outlettype" : [ "signal" ],
					"patching_rect" : [ 312.0, 216.0, 36.0, 18.0 ],
					"text" : "noise~"
				}

			}
, 			{
				"box" : 				{
					"id" : "obj-36",
					"maxclass" : "newobj",
					"numinlets" : 2,
					"numoutlets" : 1,
					"outlettype" : [ "signal" ],
					"patching_rect" : [ 444.0, 432.0, 61.0, 18.0 ],
					"text" : "cycle~ 0.711"
				}

			}
, 			{
				"box" : 				{
					"id" : "obj-32",
					"maxclass" : "newobj",
					"numinlets" : 2,
					"numoutlets" : 1,
					"outlettype" : [ "signal" ],
					"patching_rect" : [ 540.0, 432.0, 61.0, 18.0 ],
					"text" : "cycle~ 0.513"
				}

			}
, 			{
				"box" : 				{
					"id" : "obj-31",
					"maxclass" : "comment",
					"numinlets" : 1,
					"numoutlets" : 0,
					"patching_rect" : [ 528.0, 312.0, 144.0, 16.0 ],
					"text" : "<- calculates amplitude spectrum"
				}

			}
, 			{
				"box" : 				{
					"id" : "obj-12",
					"maxclass" : "live.tab",
					"num_lines_patching" : 1,
					"num_lines_presentation" : 0,
					"numinlets" : 1,
					"numoutlets" : 3,
					"outlettype" : [ "", "", "float" ],
					"parameter_enable" : 1,
					"patching_rect" : [ 360.0, 564.0, 64.0, 20.0 ],
					"saved_attribute_attributes" : 					{
						"valueof" : 						{
							"parameter_longname" : "live.tab",
							"parameter_mmax" : 1,
							"parameter_shortname" : "live.tab",
							"parameter_enum" : [ "1", "2" ],
							"parameter_type" : 2,
							"parameter_unitstyle" : 0
						}

					}
,
					"varname" : "live.tab"
				}

			}
, 			{
				"box" : 				{
					"id" : "obj-7",
					"maxclass" : "newobj",
					"numinlets" : 1,
					"numoutlets" : 1,
					"outlettype" : [ "signal" ],
					"patching_rect" : [ 84.0, 564.0, 34.0, 18.0 ],
					"text" : "sig~ 1"
				}

			}
, 			{
				"box" : 				{
					"id" : "obj-6",
					"maxclass" : "newobj",
					"numinlets" : 1,
					"numoutlets" : 1,
					"outlettype" : [ "signal" ],
					"patching_rect" : [ 240.0, 564.0, 34.0, 18.0 ],
					"text" : "sig~ 1"
				}

			}
, 			{
				"box" : 				{
					"id" : "obj-5",
					"maxclass" : "newobj",
					"numinlets" : 3,
					"numoutlets" : 1,
					"outlettype" : [ "signal" ],
					"patching_rect" : [ 228.0, 600.0, 62.0, 18.0 ],
					"text" : "selector~ 2 1"
				}

			}
, 			{
				"box" : 				{
					"id" : "obj-4",
					"maxclass" : "newobj",
					"numinlets" : 3,
					"numoutlets" : 1,
					"outlettype" : [ "signal" ],
					"patching_rect" : [ 72.0, 600.0, 62.0, 18.0 ],
					"text" : "selector~ 2 1"
				}

			}
, 			{
				"box" : 				{
					"fontname" : "Lato",
					"fontsize" : 14.0,
					"id" : "obj-26",
					"linecount" : 3,
					"maxclass" : "comment",
					"numinlets" : 1,
					"numoutlets" : 0,
					"patching_rect" : [ 24.0, 84.0, 643.0, 57.0 ],
					"prototypename" : "jx.courier",
					"text" : "The amplitude values taken from the amplitude spectrum, are converted to probabilities for the band of frequencies they represent. The jeyhisto~ object expects values in the range [0, 1] and when banged gives a distribution of all received values thusfar. This list can directly be handed to jeynoise~."
				}

			}
, 			{
				"box" : 				{
					"id" : "obj-173",
					"maxclass" : "newobj",
					"numinlets" : 2,
					"numoutlets" : 1,
					"outlettype" : [ "signal" ],
					"patching_rect" : [ 216.0, 648.0, 36.0, 18.0 ],
					"text" : "*~ 0.2"
				}

			}
, 			{
				"box" : 				{
					"id" : "obj-172",
					"maxclass" : "newobj",
					"numinlets" : 2,
					"numoutlets" : 1,
					"outlettype" : [ "signal" ],
					"patching_rect" : [ 60.0, 648.0, 36.0, 18.0 ],
					"text" : "*~ 0.2"
				}

			}
, 			{
				"box" : 				{
					"id" : "obj-134",
					"maxclass" : "newobj",
					"numinlets" : 2,
					"numoutlets" : 1,
					"outlettype" : [ "signal" ],
					"patching_rect" : [ 276.0, 540.0, 61.0, 18.0 ],
					"text" : "minimum~ 1"
				}

			}
, 			{
				"box" : 				{
					"id" : "obj-135",
					"maxclass" : "newobj",
					"numinlets" : 2,
					"numoutlets" : 1,
					"outlettype" : [ "signal" ],
					"patching_rect" : [ 276.0, 516.0, 78.0, 18.0 ],
					"text" : "index~ ampspect"
				}

			}
, 			{
				"box" : 				{
					"id" : "obj-136",
					"maxclass" : "newobj",
					"numinlets" : 2,
					"numoutlets" : 1,
					"outlettype" : [ "signal" ],
					"patching_rect" : [ 276.0, 564.0, 29.5, 18.0 ],
					"text" : "sah~"
				}

			}
, 			{
				"box" : 				{
					"id" : "obj-137",
					"maxclass" : "newobj",
					"numinlets" : 6,
					"numoutlets" : 1,
					"outlettype" : [ "signal" ],
					"patching_rect" : [ 276.0, 492.0, 102.0, 18.0 ],
					"text" : "scale~ 30 24000 0 128"
				}

			}
, 			{
				"box" : 				{
					"id" : "obj-129",
					"maxclass" : "newobj",
					"numinlets" : 2,
					"numoutlets" : 1,
					"outlettype" : [ "signal" ],
					"patching_rect" : [ 120.0, 540.0, 61.0, 18.0 ],
					"text" : "minimum~ 1"
				}

			}
, 			{
				"box" : 				{
					"id" : "obj-130",
					"maxclass" : "newobj",
					"numinlets" : 2,
					"numoutlets" : 1,
					"outlettype" : [ "signal" ],
					"patching_rect" : [ 60.0, 624.0, 29.5, 18.0 ],
					"text" : "*~"
				}

			}
, 			{
				"box" : 				{
					"id" : "obj-131",
					"maxclass" : "newobj",
					"numinlets" : 2,
					"numoutlets" : 1,
					"outlettype" : [ "signal" ],
					"patching_rect" : [ 120.0, 516.0, 78.0, 18.0 ],
					"text" : "index~ ampspect"
				}

			}
, 			{
				"box" : 				{
					"id" : "obj-132",
					"maxclass" : "newobj",
					"numinlets" : 2,
					"numoutlets" : 1,
					"outlettype" : [ "signal" ],
					"patching_rect" : [ 120.0, 564.0, 29.5, 18.0 ],
					"text" : "sah~"
				}

			}
, 			{
				"box" : 				{
					"id" : "obj-133",
					"maxclass" : "newobj",
					"numinlets" : 6,
					"numoutlets" : 1,
					"outlettype" : [ "signal" ],
					"patching_rect" : [ 120.0, 492.0, 102.0, 18.0 ],
					"text" : "scale~ 30 24000 0 128"
				}

			}
, 			{
				"box" : 				{
					"id" : "obj-127",
					"maxclass" : "newobj",
					"numinlets" : 2,
					"numoutlets" : 1,
					"outlettype" : [ "signal" ],
					"patching_rect" : [ 216.0, 624.0, 29.5, 18.0 ],
					"text" : "*~"
				}

			}
, 			{
				"box" : 				{
					"calccount" : 2,
					"id" : "obj-116",
					"maxclass" : "scope~",
					"numinlets" : 2,
					"numoutlets" : 0,
					"patching_rect" : [ 108.0, 240.0, 192.0, 48.0 ],
					"range" : [ 0.0, 1.0 ]
				}

			}
, 			{
				"box" : 				{
					"contdata" : 1,
					"id" : "obj-106",
					"maxclass" : "multislider",
					"numinlets" : 1,
					"numoutlets" : 2,
					"outlettype" : [ "", "" ],
					"parameter_enable" : 0,
					"patching_rect" : [ 84.0, 384.0, 257.0, 60.0 ],
					"prototypename" : "jx.jey",
					"setminmax" : [ 0.0, 1.0 ],
					"setstyle" : 1,
					"size" : 128,
					"spacing" : 1
				}

			}
, 			{
				"box" : 				{
					"id" : "obj-76",
					"maxclass" : "message",
					"numinlets" : 2,
					"numoutlets" : 1,
					"outlettype" : [ "" ],
					"patching_rect" : [ 444.0, 264.0, 44.0, 18.0 ],
					"text" : "set $1, 1"
				}

			}
, 			{
				"box" : 				{
					"id" : "obj-74",
					"maxclass" : "newobj",
					"numinlets" : 1,
					"numoutlets" : 2,
					"outlettype" : [ "float", "bang" ],
					"patching_rect" : [ 552.0, 288.0, 108.0, 18.0 ],
					"text" : "buffer~ drums drumloop"
				}

			}
, 			{
				"box" : 				{
					"id" : "obj-73",
					"maxclass" : "comment",
					"numinlets" : 1,
					"numoutlets" : 0,
					"patching_rect" : [ 108.0, 216.0, 60.0, 16.0 ],
					"text" : "refers to:",
					"textjustification" : 1
				}

			}
, 			{
				"box" : 				{
					"id" : "obj-43",
					"maxclass" : "newobj",
					"numinlets" : 2,
					"numoutlets" : 1,
					"outlettype" : [ "bang" ],
					"patching_rect" : [ 132.0, 324.0, 83.0, 18.0 ],
					"text" : "metro 5 @active 1"
				}

			}
, 			{
				"box" : 				{
					"attr" : "threshold",
					"id" : "obj-29",
					"maxclass" : "attrui",
					"numinlets" : 1,
					"numoutlets" : 1,
					"outlettype" : [ "" ],
					"patching_rect" : [ 84.0, 192.0, 150.0, 18.0 ]
				}

			}
, 			{
				"box" : 				{
					"id" : "obj-2",
					"maxclass" : "newobj",
					"numinlets" : 2,
					"numoutlets" : 2,
					"outlettype" : [ "signal", "signal" ],
					"patcher" : 					{
						"fileversion" : 1,
						"appversion" : 						{
							"major" : 8,
							"minor" : 0,
							"revision" : 5,
							"architecture" : "x64",
							"modernui" : 1
						}
,
						"classnamespace" : "dsp.gen",
						"rect" : [ -1558.0, -356.0, 969.0, 665.0 ],
						"bglocked" : 0,
						"openinpresentation" : 0,
						"default_fontsize" : 8.0,
						"default_fontface" : 0,
						"default_fontname" : "Verdana",
						"gridonopen" : 2,
						"gridsize" : [ 12.0, 12.0 ],
						"gridsnaponopen" : 2,
						"objectsnaponopen" : 0,
						"statusbarvisible" : 2,
						"toolbarvisible" : 1,
						"lefttoolbarpinned" : 0,
						"toptoolbarpinned" : 0,
						"righttoolbarpinned" : 0,
						"bottomtoolbarpinned" : 0,
						"toolbars_unpinned_last_save" : 0,
						"tallnewobj" : 0,
						"boxanimatetime" : 0,
						"enablehscroll" : 1,
						"enablevscroll" : 1,
						"devicewidth" : 0.0,
						"description" : "",
						"digest" : "",
						"tags" : "",
						"style" : "jx.style",
						"subpatcher_template" : "jx.template",
						"boxes" : [ 							{
								"box" : 								{
									"id" : "obj-3",
									"maxclass" : "newobj",
									"numinlets" : 1,
									"numoutlets" : 0,
									"patching_rect" : [ 864.0, 624.0, 29.0, 18.0 ],
									"text" : "out 2"
								}

							}
, 							{
								"box" : 								{
									"code" : "/*\n\tThe amplitude spectrum is here translated into repeating values between 0 and 1.\n\tThe stronger the amplitude of a bin, the longer the bin value will be repeated.\n\tWhen this signal is fed to jeyhisto~ it turns the spectrum into a probability distribution.\n\t\n\tcreated May 2019\n\tby jvkr\n*/\n\nBuffer amps(\"ampspect\");\n\nHistory indexVal(0);\nHistory outVal(1);\nHistory repeats(-1);\nHistory i (0);\n\nParam threshold(0.5);\n\n\nif (repeats<0) {\n\tampVal = 0;\n\ti = 0;\n\trepeatThis = 1;\n\twhile (repeatThis) {\n\t\tindexVal = wrap(indexVal+1, 0, 128);\n\t\tampVal = peek(amps, indexVal);\n\t\ti += 1;\n\t\trepeatThis = (i<130) * (ampVal < threshold);\n\t}\n\tif (ampVal>= threshold) {\n\t\trepeats = 10 * ampVal;\n\t\toutVal = indexVal/128;\n\t}\n\telse {\n\t\toutVal = 1;\n\t}\n\t\n}\n\nout1 = outVal;\nout2 = indexVal;\nrepeats -= 1;",
									"fontface" : 0,
									"fontname" : "Menlo Regular",
									"fontsize" : 8.0,
									"id" : "obj-5",
									"maxclass" : "codebox",
									"numinlets" : 1,
									"numoutlets" : 2,
									"outlettype" : [ "", "" ],
									"patching_rect" : [ 60.0, 72.0, 876.0, 540.0 ]
								}

							}
, 							{
								"box" : 								{
									"id" : "obj-2",
									"maxclass" : "newobj",
									"numinlets" : 0,
									"numoutlets" : 1,
									"outlettype" : [ "" ],
									"patching_rect" : [ 924.0, 36.0, 24.0, 18.0 ],
									"text" : "in 2"
								}

							}
, 							{
								"box" : 								{
									"id" : "obj-4",
									"maxclass" : "newobj",
									"numinlets" : 1,
									"numoutlets" : 0,
									"patching_rect" : [ 60.0, 624.0, 29.0, 18.0 ],
									"text" : "out 1"
								}

							}
 ],
						"lines" : [ 							{
								"patchline" : 								{
									"destination" : [ "obj-3", 0 ],
									"source" : [ "obj-5", 1 ]
								}

							}
, 							{
								"patchline" : 								{
									"destination" : [ "obj-4", 0 ],
									"source" : [ "obj-5", 0 ]
								}

							}
 ],
						"styles" : [ 							{
								"name" : "jpatcher001",
								"default" : 								{
									"bgfillcolor" : 									{
										"type" : "color",
										"color1" : [ 0.65098, 0.666667, 0.662745, 0.64 ],
										"color2" : [ 0.0, 0.0, 0.0, 0.65 ],
										"color" : [ 0.0, 0.0, 0.0, 0.45 ],
										"angle" : 270.0,
										"proportion" : 0.39
									}
,
									"color" : [ 0.8, 0.8, 0.8, 1.0 ],
									"accentcolor" : [ 1.0, 1.0, 1.0, 0.25 ],
									"fontsize" : [ 8.0 ],
									"textcolor" : [ 0.0, 0.0, 0.0, 0.690196 ],
									"bgcolor" : [ 0.095481, 0.100396, 0.100293, 0.36 ],
									"fontname" : [ "Verdana" ],
									"patchlinecolor" : [ 0.239216, 0.254902, 0.278431, 0.45 ]
								}
,
								"parentstyle" : "",
								"multi" : 0
							}
, 							{
								"name" : "jx.style",
								"default" : 								{
									"bgfillcolor" : 									{
										"type" : "color",
										"color1" : [ 0.65098, 0.666667, 0.662745, 0.64 ],
										"color2" : [ 0.0, 0.0, 0.0, 0.65 ],
										"color" : [ 0.0, 0.0, 0.0, 0.45 ],
										"angle" : 270.0,
										"proportion" : 0.39
									}
,
									"color" : [ 0.8, 0.8, 0.8, 1.0 ],
									"accentcolor" : [ 1.0, 1.0, 1.0, 0.25 ],
									"fontsize" : [ 8.0 ],
									"textcolor" : [ 0.0, 0.0, 0.0, 0.690196 ],
									"bgcolor" : [ 0.095481, 0.100396, 0.100293, 0.36 ],
									"fontname" : [ "Verdana" ],
									"patchlinecolor" : [ 0.239216, 0.254902, 0.278431, 0.45 ]
								}
,
								"parentstyle" : "jpatcher001",
								"multi" : 0
							}
 ],
						"toolbaradditions" : [ "transport", "audiomute", "audiosolo" ],
						"toolbarexclusions" : [ "transport", "audiomute", "audiosolo" ],
						"bgcolor" : [ 0.65098, 0.666667, 0.662745, 1.0 ],
						"editing_bgcolor" : [ 0.65098, 0.666667, 0.662745, 1.0 ]
					}
,
					"patching_rect" : [ 84.0, 216.0, 30.0, 18.0 ],
					"text" : "gen~"
				}

			}
, 			{
				"box" : 				{
					"id" : "obj-53",
					"maxclass" : "newobj",
					"numinlets" : 3,
					"numoutlets" : 0,
					"patching_rect" : [ 444.0, 348.0, 76.0, 18.0 ],
					"text" : "poke~ ampspect"
				}

			}
, 			{
				"box" : 				{
					"id" : "obj-51",
					"maxclass" : "newobj",
					"numinlets" : 1,
					"numoutlets" : 2,
					"outlettype" : [ "float", "bang" ],
					"patching_rect" : [ 168.0, 216.0, 135.0, 18.0 ],
					"text" : "buffer~ ampspect @samps 128"
				}

			}
, 			{
				"box" : 				{
					"id" : "obj-39",
					"maxclass" : "newobj",
					"numinlets" : 2,
					"numoutlets" : 2,
					"outlettype" : [ "", "" ],
					"patching_rect" : [ 60.0, 348.0, 43.0, 18.0 ],
					"text" : "zl.ecils 1"
				}

			}
, 			{
				"box" : 				{
					"id" : "obj-34",
					"maxclass" : "newobj",
					"numinlets" : 1,
					"numoutlets" : 2,
					"outlettype" : [ "signal", "signal" ],
					"patching_rect" : [ 444.0, 312.0, 77.0, 18.0 ],
					"text" : "pfft~ jbins 256 2"
				}

			}
, 			{
				"box" : 				{
					"color" : [ 1.0, 1.0, 0.400000035762787, 1.0 ],
					"id" : "obj-21",
					"maxclass" : "newobj",
					"numinlets" : 4,
					"numoutlets" : 5,
					"outlettype" : [ "signal", "signal", "signal", "signal", "bang" ],
					"patching_rect" : [ 216.0, 456.0, 150.0, 18.0 ],
					"saved_object_attributes" : 					{
						"active" : 1,
						"err_msg" : 0,
						"f0(folded)" : 30.0,
						"f1(folded)" : 22050.0,
						"fold0(abs.,clipped)" : 1.0,
						"fold1(abs.,clipped)" : 22050.0,
						"ignore_0PDF" : 1,
						"proc_time" : 0
					}
,
					"text" : "jeynoise~ @f0 30 @ignore_0PDF 1"
				}

			}
, 			{
				"box" : 				{
					"color" : [ 1.0, 1.0, 0.400000035762787, 1.0 ],
					"id" : "obj-14",
					"maxclass" : "newobj",
					"numinlets" : 1,
					"numoutlets" : 2,
					"outlettype" : [ "list", "bang" ],
					"patching_rect" : [ 60.0, 324.0, 65.0, 18.0 ],
					"saved_object_attributes" : 					{
						"err_msg" : 0
					}
,
					"text" : "jeyhisto~ 129"
				}

			}
, 			{
				"box" : 				{
					"id" : "obj-11",
					"maxclass" : "newobj",
					"numinlets" : 1,
					"numoutlets" : 2,
					"outlettype" : [ "float", "bang" ],
					"patching_rect" : [ 552.0, 264.0, 102.0, 18.0 ],
					"text" : "buffer~ voice cherokee"
				}

			}
, 			{
				"box" : 				{
					"id" : "obj-10",
					"maxclass" : "newobj",
					"numinlets" : 1,
					"numoutlets" : 2,
					"outlettype" : [ "signal", "bang" ],
					"patching_rect" : [ 444.0, 288.0, 91.0, 18.0 ],
					"text" : "play~ voice @loop 1"
				}

			}
, 			{
				"box" : 				{
					"color" : [ 1.0, 1.0, 0.400000035762787, 1.0 ],
					"id" : "obj-1",
					"maxclass" : "newobj",
					"numinlets" : 4,
					"numoutlets" : 5,
					"outlettype" : [ "signal", "signal", "signal", "signal", "bang" ],
					"patching_rect" : [ 60.0, 456.0, 150.0, 18.0 ],
					"saved_object_attributes" : 					{
						"active" : 1,
						"err_msg" : 0,
						"f0(folded)" : 30.0,
						"f1(folded)" : 22050.0,
						"fold0(abs.,clipped)" : 1.0,
						"fold1(abs.,clipped)" : 22050.0,
						"ignore_0PDF" : 1,
						"proc_time" : 0
					}
,
					"text" : "jeynoise~ @f0 30 @ignore_0PDF 1"
				}

			}
, 			{
				"box" : 				{
					"background" : 1,
					"bgcolor" : [ 1.0, 0.788235, 0.470588, 1.0 ],
					"fontface" : 1,
					"hint" : "",
					"id" : "obj-66",
					"ignoreclick" : 1,
					"legacytextcolor" : 1,
					"maxclass" : "textbutton",
					"numinlets" : 1,
					"numoutlets" : 3,
					"outlettype" : [ "", "", "int" ],
					"parameter_enable" : 0,
					"patching_rect" : [ 36.0, 156.0, 20.0, 20.0 ],
					"rounded" : 60.0,
					"text" : "4",
					"textcolor" : [ 0.34902, 0.34902, 0.34902, 1.0 ]
				}

			}
, 			{
				"box" : 				{
					"background" : 1,
					"bgcolor" : [ 1.0, 0.788235, 0.470588, 1.0 ],
					"fontface" : 1,
					"hint" : "",
					"id" : "obj-3",
					"ignoreclick" : 1,
					"legacytextcolor" : 1,
					"maxclass" : "textbutton",
					"numinlets" : 1,
					"numoutlets" : 3,
					"outlettype" : [ "", "", "int" ],
					"parameter_enable" : 0,
					"patching_rect" : [ 336.0, 564.0, 20.0, 20.0 ],
					"rounded" : 60.0,
					"text" : "3",
					"textcolor" : [ 0.34902, 0.34902, 0.34902, 1.0 ]
				}

			}
, 			{
				"box" : 				{
					"background" : 1,
					"bgcolor" : [ 1.0, 0.788235, 0.470588, 1.0 ],
					"fontface" : 1,
					"hint" : "",
					"id" : "obj-40",
					"ignoreclick" : 1,
					"legacytextcolor" : 1,
					"maxclass" : "textbutton",
					"numinlets" : 1,
					"numoutlets" : 3,
					"outlettype" : [ "", "", "int" ],
					"parameter_enable" : 0,
					"patching_rect" : [ 420.0, 216.0, 20.0, 20.0 ],
					"rounded" : 60.0,
					"text" : "2",
					"textcolor" : [ 0.34902, 0.34902, 0.34902, 1.0 ]
				}

			}
, 			{
				"box" : 				{
					"background" : 1,
					"bgcolor" : [ 1.0, 0.788235, 0.470588, 1.0 ],
					"fontface" : 1,
					"hint" : "",
					"id" : "obj-93",
					"ignoreclick" : 1,
					"legacytextcolor" : 1,
					"maxclass" : "textbutton",
					"numinlets" : 1,
					"numoutlets" : 3,
					"outlettype" : [ "", "", "int" ],
					"parameter_enable" : 0,
					"patching_rect" : [ 240.0, 192.0, 20.0, 20.0 ],
					"rounded" : 60.0,
					"text" : "1",
					"textcolor" : [ 0.34902, 0.34902, 0.34902, 1.0 ]
				}

			}
 ],
		"lines" : [ 			{
				"patchline" : 				{
					"destination" : [ "obj-130", 0 ],
					"source" : [ "obj-1", 0 ]
				}

			}
, 			{
				"patchline" : 				{
					"destination" : [ "obj-132", 1 ],
					"order" : 0,
					"source" : [ "obj-1", 2 ]
				}

			}
, 			{
				"patchline" : 				{
					"destination" : [ "obj-133", 0 ],
					"order" : 1,
					"source" : [ "obj-1", 2 ]
				}

			}
, 			{
				"patchline" : 				{
					"destination" : [ "obj-34", 0 ],
					"source" : [ "obj-10", 0 ]
				}

			}
, 			{
				"patchline" : 				{
					"destination" : [ "obj-4", 0 ],
					"midpoints" : [ 392.0, 591.5, 81.5, 591.5 ],
					"order" : 1,
					"source" : [ "obj-12", 1 ]
				}

			}
, 			{
				"patchline" : 				{
					"destination" : [ "obj-5", 0 ],
					"midpoints" : [ 392.0, 591.5, 237.5, 591.5 ],
					"order" : 0,
					"source" : [ "obj-12", 1 ]
				}

			}
, 			{
				"patchline" : 				{
					"destination" : [ "obj-173", 0 ],
					"source" : [ "obj-127", 0 ]
				}

			}
, 			{
				"patchline" : 				{
					"destination" : [ "obj-132", 0 ],
					"source" : [ "obj-129", 0 ]
				}

			}
, 			{
				"patchline" : 				{
					"destination" : [ "obj-172", 0 ],
					"source" : [ "obj-130", 0 ]
				}

			}
, 			{
				"patchline" : 				{
					"destination" : [ "obj-129", 0 ],
					"source" : [ "obj-131", 0 ]
				}

			}
, 			{
				"patchline" : 				{
					"destination" : [ "obj-4", 2 ],
					"source" : [ "obj-132", 0 ]
				}

			}
, 			{
				"patchline" : 				{
					"destination" : [ "obj-131", 0 ],
					"source" : [ "obj-133", 0 ]
				}

			}
, 			{
				"patchline" : 				{
					"destination" : [ "obj-136", 0 ],
					"source" : [ "obj-134", 0 ]
				}

			}
, 			{
				"patchline" : 				{
					"destination" : [ "obj-134", 0 ],
					"source" : [ "obj-135", 0 ]
				}

			}
, 			{
				"patchline" : 				{
					"destination" : [ "obj-5", 2 ],
					"source" : [ "obj-136", 0 ]
				}

			}
, 			{
				"patchline" : 				{
					"destination" : [ "obj-135", 0 ],
					"source" : [ "obj-137", 0 ]
				}

			}
, 			{
				"patchline" : 				{
					"destination" : [ "obj-39", 0 ],
					"source" : [ "obj-14", 0 ]
				}

			}
, 			{
				"patchline" : 				{
					"destination" : [ "obj-15", 1 ],
					"source" : [ "obj-16", 1 ]
				}

			}
, 			{
				"patchline" : 				{
					"destination" : [ "obj-15", 0 ],
					"source" : [ "obj-16", 0 ]
				}

			}
, 			{
				"patchline" : 				{
					"destination" : [ "obj-52", 0 ],
					"source" : [ "obj-17", 0 ]
				}

			}
, 			{
				"patchline" : 				{
					"destination" : [ "obj-16", 0 ],
					"source" : [ "obj-172", 0 ]
				}

			}
, 			{
				"patchline" : 				{
					"destination" : [ "obj-16", 1 ],
					"source" : [ "obj-173", 0 ]
				}

			}
, 			{
				"patchline" : 				{
					"destination" : [ "obj-116", 0 ],
					"order" : 0,
					"source" : [ "obj-2", 0 ]
				}

			}
, 			{
				"patchline" : 				{
					"destination" : [ "obj-54", 1 ],
					"order" : 1,
					"source" : [ "obj-2", 0 ]
				}

			}
, 			{
				"patchline" : 				{
					"destination" : [ "obj-127", 0 ],
					"source" : [ "obj-21", 0 ]
				}

			}
, 			{
				"patchline" : 				{
					"destination" : [ "obj-136", 1 ],
					"order" : 0,
					"source" : [ "obj-21", 2 ]
				}

			}
, 			{
				"patchline" : 				{
					"destination" : [ "obj-137", 0 ],
					"order" : 1,
					"source" : [ "obj-21", 2 ]
				}

			}
, 			{
				"patchline" : 				{
					"destination" : [ "obj-19", 0 ],
					"hidden" : 1,
					"source" : [ "obj-28", 0 ]
				}

			}
, 			{
				"patchline" : 				{
					"destination" : [ "obj-2", 0 ],
					"source" : [ "obj-29", 0 ]
				}

			}
, 			{
				"patchline" : 				{
					"destination" : [ "obj-47", 0 ],
					"source" : [ "obj-32", 0 ]
				}

			}
, 			{
				"patchline" : 				{
					"destination" : [ "obj-53", 1 ],
					"source" : [ "obj-34", 1 ]
				}

			}
, 			{
				"patchline" : 				{
					"destination" : [ "obj-53", 0 ],
					"source" : [ "obj-34", 0 ]
				}

			}
, 			{
				"patchline" : 				{
					"destination" : [ "obj-44", 0 ],
					"source" : [ "obj-36", 0 ]
				}

			}
, 			{
				"patchline" : 				{
					"destination" : [ "obj-17", 0 ],
					"source" : [ "obj-38", 0 ]
				}

			}
, 			{
				"patchline" : 				{
					"destination" : [ "obj-1", 0 ],
					"order" : 2,
					"source" : [ "obj-39", 0 ]
				}

			}
, 			{
				"patchline" : 				{
					"destination" : [ "obj-106", 0 ],
					"order" : 1,
					"source" : [ "obj-39", 0 ]
				}

			}
, 			{
				"patchline" : 				{
					"destination" : [ "obj-21", 0 ],
					"midpoints" : [ 69.5, 451.5, 225.5, 451.5 ],
					"order" : 0,
					"source" : [ "obj-39", 0 ]
				}

			}
, 			{
				"patchline" : 				{
					"destination" : [ "obj-130", 1 ],
					"source" : [ "obj-4", 0 ]
				}

			}
, 			{
				"patchline" : 				{
					"destination" : [ "obj-14", 0 ],
					"source" : [ "obj-43", 0 ]
				}

			}
, 			{
				"patchline" : 				{
					"destination" : [ "obj-46", 0 ],
					"source" : [ "obj-44", 0 ]
				}

			}
, 			{
				"patchline" : 				{
					"destination" : [ "obj-50", 0 ],
					"source" : [ "obj-47", 0 ]
				}

			}
, 			{
				"patchline" : 				{
					"destination" : [ "obj-46", 1 ],
					"source" : [ "obj-48", 0 ]
				}

			}
, 			{
				"patchline" : 				{
					"destination" : [ "obj-50", 1 ],
					"source" : [ "obj-49", 0 ]
				}

			}
, 			{
				"patchline" : 				{
					"destination" : [ "obj-127", 1 ],
					"source" : [ "obj-5", 0 ]
				}

			}
, 			{
				"patchline" : 				{
					"destination" : [ "obj-54", 2 ],
					"midpoints" : [ 321.5, 293.5, 112.5, 293.5 ],
					"source" : [ "obj-52", 0 ]
				}

			}
, 			{
				"patchline" : 				{
					"destination" : [ "obj-14", 0 ],
					"source" : [ "obj-54", 0 ]
				}

			}
, 			{
				"patchline" : 				{
					"destination" : [ "obj-54", 0 ],
					"midpoints" : [ 92.0, 184.5, 69.5, 184.5 ],
					"source" : [ "obj-55", 1 ]
				}

			}
, 			{
				"patchline" : 				{
					"destination" : [ "obj-5", 1 ],
					"source" : [ "obj-6", 0 ]
				}

			}
, 			{
				"patchline" : 				{
					"destination" : [ "obj-28", 0 ],
					"hidden" : 1,
					"source" : [ "obj-63", 0 ]
				}

			}
, 			{
				"patchline" : 				{
					"destination" : [ "obj-69", 0 ],
					"source" : [ "obj-68", 0 ]
				}

			}
, 			{
				"patchline" : 				{
					"destination" : [ "obj-76", 0 ],
					"source" : [ "obj-69", 0 ]
				}

			}
, 			{
				"patchline" : 				{
					"destination" : [ "obj-4", 1 ],
					"source" : [ "obj-7", 0 ]
				}

			}
, 			{
				"patchline" : 				{
					"destination" : [ "obj-10", 0 ],
					"source" : [ "obj-76", 0 ]
				}

			}
 ],
		"parameters" : 		{
			"obj-12" : [ "live.tab", "live.tab", 0 ],
			"obj-16" : [ "live.gain~", "live.gain~", 0 ],
			"obj-68" : [ "live.tab[2]", "live.tab", 0 ],
			"obj-55" : [ "live.tab[1]", "live.tab", 0 ],
			"parameterbanks" : 			{

			}

		}
,
		"dependency_cache" : [ 			{
				"name" : "jbins.maxpat",
				"bootpath" : "~/Desktop/examples_jvkr/jvkr_jex",
				"patcherrelativepath" : ".",
				"type" : "JSON",
				"implicit" : 1
			}
, 			{
				"name" : "title_jvkr.maxpat",
				"bootpath" : "~/Desktop/examples_jvkr/jvkr_jex",
				"patcherrelativepath" : ".",
				"type" : "JSON",
				"implicit" : 1
			}
, 			{
				"name" : "p_name.js",
				"bootpath" : "~/Desktop/examples_jvkr/jvkr_jex",
				"patcherrelativepath" : ".",
				"type" : "TEXT",
				"implicit" : 1
			}
, 			{
				"name" : "jeynoise~.mxo",
				"type" : "iLaX"
			}
, 			{
				"name" : "jeyhisto~.mxo",
				"type" : "iLaX"
			}
 ],
		"autosave" : 0,
		"styles" : [ 			{
				"name" : "jpatcher001",
				"default" : 				{
					"bgfillcolor" : 					{
						"type" : "color",
						"color1" : [ 0.65098, 0.666667, 0.662745, 0.64 ],
						"color2" : [ 0.0, 0.0, 0.0, 0.65 ],
						"color" : [ 0.0, 0.0, 0.0, 0.45 ],
						"angle" : 270.0,
						"proportion" : 0.39
					}
,
					"color" : [ 0.8, 0.8, 0.8, 1.0 ],
					"accentcolor" : [ 1.0, 1.0, 1.0, 0.25 ],
					"fontsize" : [ 8.0 ],
					"textcolor" : [ 0.0, 0.0, 0.0, 0.690196 ],
					"bgcolor" : [ 0.095481, 0.100396, 0.100293, 0.36 ],
					"fontname" : [ "Verdana" ],
					"patchlinecolor" : [ 0.239216, 0.254902, 0.278431, 0.45 ]
				}
,
				"parentstyle" : "",
				"multi" : 0
			}
, 			{
				"name" : "jx.style",
				"default" : 				{
					"bgfillcolor" : 					{
						"type" : "color",
						"color1" : [ 0.65098, 0.666667, 0.662745, 0.64 ],
						"color2" : [ 0.0, 0.0, 0.0, 0.65 ],
						"color" : [ 0.0, 0.0, 0.0, 0.45 ],
						"angle" : 270.0,
						"proportion" : 0.39
					}
,
					"color" : [ 0.8, 0.8, 0.8, 1.0 ],
					"accentcolor" : [ 1.0, 1.0, 1.0, 0.25 ],
					"fontsize" : [ 8.0 ],
					"textcolor" : [ 0.0, 0.0, 0.0, 0.690196 ],
					"bgcolor" : [ 0.095481, 0.100396, 0.100293, 0.36 ],
					"fontname" : [ "Verdana" ],
					"patchlinecolor" : [ 0.239216, 0.254902, 0.278431, 0.45 ]
				}
,
				"parentstyle" : "jpatcher001",
				"multi" : 0
			}
 ],
		"toolbaradditions" : [ "transport", "audiomute", "audiosolo" ],
		"toolbarexclusions" : [ "transport", "audiomute", "audiosolo" ],
		"bgcolor" : [ 0.65098, 0.666667, 0.662745, 1.0 ],
		"editing_bgcolor" : [ 0.65098, 0.666667, 0.662745, 1.0 ]
	}

}
