{
	"patcher" : 	{
		"fileversion" : 1,
		"appversion" : 		{
			"major" : 8,
			"minor" : 0,
			"revision" : 5,
			"architecture" : "x64",
			"modernui" : 1
		}
,
		"classnamespace" : "box",
		"rect" : [ 100.0, 100.0, 708.0, 708.0 ],
		"openrect" : [ 0.0, 0.0, 708.0, 708.0 ],
		"bglocked" : 0,
		"openinpresentation" : 0,
		"default_fontsize" : 8.0,
		"default_fontface" : 0,
		"default_fontname" : "Verdana",
		"gridonopen" : 2,
		"gridsize" : [ 12.0, 12.0 ],
		"gridsnaponopen" : 2,
		"objectsnaponopen" : 0,
		"statusbarvisible" : 2,
		"toolbarvisible" : 0,
		"lefttoolbarpinned" : 0,
		"toptoolbarpinned" : 0,
		"righttoolbarpinned" : 0,
		"bottomtoolbarpinned" : 0,
		"toolbars_unpinned_last_save" : 0,
		"tallnewobj" : 0,
		"boxanimatetime" : 0,
		"enablehscroll" : 1,
		"enablevscroll" : 1,
		"devicewidth" : 0.0,
		"description" : "",
		"digest" : "",
		"tags" : "",
		"style" : "jx.style",
		"subpatcher_template" : "jx.template",
		"boxes" : [ 			{
				"box" : 				{
					"hidden" : 1,
					"id" : "obj-63",
					"maxclass" : "newobj",
					"numinlets" : 1,
					"numoutlets" : 1,
					"outlettype" : [ "" ],
					"patching_rect" : [ 576.0, 564.0, 51.0, 18.0 ],
					"saved_object_attributes" : 					{
						"filename" : "p_name",
						"parameter_enable" : 0
					}
,
					"text" : "js p_name"
				}

			}
, 			{
				"box" : 				{
					"hidden" : 1,
					"id" : "obj-28",
					"maxclass" : "newobj",
					"numinlets" : 1,
					"numoutlets" : 1,
					"outlettype" : [ "" ],
					"patcher" : 					{
						"fileversion" : 1,
						"appversion" : 						{
							"major" : 8,
							"minor" : 0,
							"revision" : 5,
							"architecture" : "x64",
							"modernui" : 1
						}
,
						"classnamespace" : "box",
						"rect" : [ 34.0, 79.0, 529.0, 243.0 ],
						"bglocked" : 0,
						"openinpresentation" : 0,
						"default_fontsize" : 8.0,
						"default_fontface" : 0,
						"default_fontname" : "Verdana",
						"gridonopen" : 2,
						"gridsize" : [ 12.0, 12.0 ],
						"gridsnaponopen" : 2,
						"objectsnaponopen" : 0,
						"statusbarvisible" : 2,
						"toolbarvisible" : 1,
						"lefttoolbarpinned" : 0,
						"toptoolbarpinned" : 0,
						"righttoolbarpinned" : 0,
						"bottomtoolbarpinned" : 0,
						"toolbars_unpinned_last_save" : 0,
						"tallnewobj" : 0,
						"boxanimatetime" : 0,
						"enablehscroll" : 1,
						"enablevscroll" : 1,
						"devicewidth" : 0.0,
						"description" : "",
						"digest" : "",
						"tags" : "",
						"style" : "jx.style",
						"subpatcher_template" : "jx.template",
						"boxes" : [ 							{
								"box" : 								{
									"comment" : "",
									"id" : "obj-2",
									"index" : 1,
									"maxclass" : "inlet",
									"numinlets" : 0,
									"numoutlets" : 1,
									"outlettype" : [ "" ],
									"patching_rect" : [ 84.0, 36.0, 24.0, 24.0 ]
								}

							}
, 							{
								"box" : 								{
									"fontname" : "Courier New",
									"fontsize" : 14.0,
									"id" : "obj-26",
									"linecount" : 7,
									"maxclass" : "comment",
									"numinlets" : 1,
									"numoutlets" : 0,
									"patching_rect" : [ 216.0, 60.0, 219.0, 118.0 ],
									"prototypename" : "jx.courier",
									"text" : "This abstraction closes other instances of the same patch. This solves the problem: a patch can be opened multiple times with the 'load' message to the pcontrol object."
								}

							}
, 							{
								"box" : 								{
									"id" : "obj-23",
									"maxclass" : "message",
									"numinlets" : 2,
									"numoutlets" : 1,
									"outlettype" : [ "" ],
									"patching_rect" : [ 108.0, 120.0, 76.0, 18.0 ],
									"text" : "send $1, dispose"
								}

							}
, 							{
								"box" : 								{
									"id" : "obj-21",
									"maxclass" : "newobj",
									"numinlets" : 1,
									"numoutlets" : 0,
									"patching_rect" : [ 108.0, 144.0, 39.0, 18.0 ],
									"text" : "forward"
								}

							}
, 							{
								"box" : 								{
									"id" : "obj-20",
									"maxclass" : "newobj",
									"numinlets" : 1,
									"numoutlets" : 2,
									"outlettype" : [ "", "" ],
									"patching_rect" : [ 84.0, 72.0, 29.5, 18.0 ],
									"text" : "t l l"
								}

							}
, 							{
								"box" : 								{
									"id" : "obj-11",
									"maxclass" : "newobj",
									"numinlets" : 1,
									"numoutlets" : 1,
									"outlettype" : [ "" ],
									"patching_rect" : [ 84.0, 96.0, 56.0, 18.0 ],
									"text" : "prepend set"
								}

							}
, 							{
								"box" : 								{
									"id" : "obj-8",
									"maxclass" : "newobj",
									"numinlets" : 1,
									"numoutlets" : 1,
									"outlettype" : [ "" ],
									"patching_rect" : [ 84.0, 120.0, 19.0, 18.0 ],
									"text" : "r"
								}

							}
, 							{
								"box" : 								{
									"comment" : "",
									"id" : "obj-27",
									"index" : 1,
									"maxclass" : "outlet",
									"numinlets" : 1,
									"numoutlets" : 0,
									"patching_rect" : [ 84.0, 180.0, 24.0, 24.0 ]
								}

							}
 ],
						"lines" : [ 							{
								"patchline" : 								{
									"destination" : [ "obj-8", 0 ],
									"source" : [ "obj-11", 0 ]
								}

							}
, 							{
								"patchline" : 								{
									"destination" : [ "obj-20", 0 ],
									"source" : [ "obj-2", 0 ]
								}

							}
, 							{
								"patchline" : 								{
									"destination" : [ "obj-11", 0 ],
									"source" : [ "obj-20", 0 ]
								}

							}
, 							{
								"patchline" : 								{
									"destination" : [ "obj-23", 0 ],
									"source" : [ "obj-20", 1 ]
								}

							}
, 							{
								"patchline" : 								{
									"destination" : [ "obj-21", 0 ],
									"source" : [ "obj-23", 0 ]
								}

							}
, 							{
								"patchline" : 								{
									"destination" : [ "obj-27", 0 ],
									"source" : [ "obj-8", 0 ]
								}

							}
 ],
						"styles" : [ 							{
								"name" : "jpatcher001",
								"default" : 								{
									"bgcolor" : [ 0.095481, 0.100396, 0.100293, 0.36 ],
									"color" : [ 0.8, 0.8, 0.8, 1.0 ],
									"bgfillcolor" : 									{
										"type" : "color",
										"color1" : [ 0.65098, 0.666667, 0.662745, 0.64 ],
										"color2" : [ 0.0, 0.0, 0.0, 0.65 ],
										"color" : [ 0.0, 0.0, 0.0, 0.45 ],
										"angle" : 270.0,
										"proportion" : 0.39
									}
,
									"textcolor" : [ 0.0, 0.0, 0.0, 0.690196 ],
									"fontsize" : [ 8.0 ],
									"patchlinecolor" : [ 0.239216, 0.254902, 0.278431, 0.45 ],
									"accentcolor" : [ 1.0, 1.0, 1.0, 0.25 ],
									"fontname" : [ "Verdana" ]
								}
,
								"parentstyle" : "",
								"multi" : 0
							}
, 							{
								"name" : "jx.style",
								"default" : 								{
									"bgcolor" : [ 0.095481, 0.100396, 0.100293, 0.36 ],
									"color" : [ 0.8, 0.8, 0.8, 1.0 ],
									"bgfillcolor" : 									{
										"type" : "color",
										"color1" : [ 0.65098, 0.666667, 0.662745, 0.64 ],
										"color2" : [ 0.0, 0.0, 0.0, 0.65 ],
										"color" : [ 0.0, 0.0, 0.0, 0.45 ],
										"angle" : 270.0,
										"proportion" : 0.39
									}
,
									"textcolor" : [ 0.0, 0.0, 0.0, 0.690196 ],
									"fontsize" : [ 8.0 ],
									"patchlinecolor" : [ 0.239216, 0.254902, 0.278431, 0.45 ],
									"accentcolor" : [ 1.0, 1.0, 1.0, 0.25 ],
									"fontname" : [ "Verdana" ]
								}
,
								"parentstyle" : "jpatcher001",
								"multi" : 0
							}
 ],
						"toolbaradditions" : [ "transport", "audiomute", "audiosolo" ],
						"toolbarexclusions" : [ "transport", "audiomute", "audiosolo" ],
						"bgcolor" : [ 0.65098, 0.666667, 0.662745, 1.0 ],
						"editing_bgcolor" : [ 0.65098, 0.666667, 0.662745, 1.0 ]
					}
,
					"patching_rect" : [ 576.0, 588.0, 77.0, 18.0 ],
					"saved_object_attributes" : 					{
						"description" : "",
						"digest" : "",
						"editing_bgcolor" : [ 0.65098, 0.666667, 0.662745, 1.0 ],
						"fontname" : "Verdana",
						"fontsize" : 8.0,
						"globalpatchername" : "",
						"locked_bgcolor" : [ 0.65098, 0.666667, 0.662745, 1.0 ],
						"style" : "jx.style",
						"tags" : ""
					}
,
					"text" : "p dispose_others"
				}

			}
, 			{
				"box" : 				{
					"hidden" : 1,
					"id" : "obj-22",
					"maxclass" : "newobj",
					"numinlets" : 1,
					"numoutlets" : 2,
					"outlettype" : [ "", "" ],
					"patching_rect" : [ 576.0, 612.0, 53.0, 18.0 ],
					"save" : [ "#N", "thispatcher", ";", "#Q", "end", ";" ],
					"text" : "thispatcher"
				}

			}
, 			{
				"box" : 				{
					"id" : "obj-23",
					"maxclass" : "comment",
					"numinlets" : 1,
					"numoutlets" : 0,
					"patching_rect" : [ 456.0, 360.0, 91.0, 16.0 ],
					"text" : "<- right input resets"
				}

			}
, 			{
				"box" : 				{
					"args" : [ "jeynoise~: interpolating delays" ],
					"bgmode" : 0,
					"border" : 0,
					"clickthrough" : 0,
					"enablehscroll" : 0,
					"enablevscroll" : 0,
					"id" : "obj-12",
					"ignoreclick" : 1,
					"lockeddragscroll" : 0,
					"maxclass" : "bpatcher",
					"name" : "title_jvkr.maxpat",
					"numinlets" : 1,
					"numoutlets" : 0,
					"offset" : [ 0.0, 0.0 ],
					"patching_rect" : [ 0.0, 0.0, 708.0, 67.0 ],
					"viewvisibility" : 1
				}

			}
, 			{
				"box" : 				{
					"fontname" : "Lato",
					"fontsize" : 14.0,
					"id" : "obj-16",
					"maxclass" : "comment",
					"numinlets" : 1,
					"numoutlets" : 0,
					"patching_rect" : [ 24.0, 84.0, 639.0, 23.0 ],
					"prototypename" : "jx.courier",
					"text" : "A train of sine wave cycles is fed  to a tap delay. The delay time is modulated by jeynoise~."
				}

			}
, 			{
				"box" : 				{
					"id" : "obj-9",
					"maxclass" : "comment",
					"numinlets" : 1,
					"numoutlets" : 0,
					"patching_rect" : [ 552.0, 492.0, 38.0, 16.0 ],
					"text" : "presets"
				}

			}
, 			{
				"box" : 				{
					"id" : "obj-5",
					"maxclass" : "ezdac~",
					"numinlets" : 2,
					"numoutlets" : 0,
					"patching_rect" : [ 156.0, 624.0, 45.0, 45.0 ]
				}

			}
, 			{
				"box" : 				{
					"id" : "obj-6",
					"maxclass" : "newobj",
					"numinlets" : 2,
					"numoutlets" : 1,
					"outlettype" : [ "" ],
					"patching_rect" : [ 420.0, 276.0, 29.5, 18.0 ],
					"text" : "pak"
				}

			}
, 			{
				"box" : 				{
					"hidden" : 1,
					"id" : "obj-4",
					"maxclass" : "newobj",
					"numinlets" : 1,
					"numoutlets" : 1,
					"outlettype" : [ "" ],
					"patching_rect" : [ 504.0, 468.0, 54.0, 18.0 ],
					"text" : "loadmess 1"
				}

			}
, 			{
				"box" : 				{
					"id" : "obj-98",
					"maxclass" : "message",
					"numinlets" : 2,
					"numoutlets" : 1,
					"outlettype" : [ "" ],
					"patching_rect" : [ 84.0, 444.0, 29.5, 18.0 ],
					"text" : "clear"
				}

			}
, 			{
				"box" : 				{
					"id" : "obj-93",
					"maxclass" : "comment",
					"numinlets" : 1,
					"numoutlets" : 0,
					"patching_rect" : [ 492.0, 204.0, 32.0, 16.0 ],
					"text" : "f [Hz]"
				}

			}
, 			{
				"box" : 				{
					"id" : "obj-86",
					"maxclass" : "newobj",
					"numinlets" : 1,
					"numoutlets" : 4,
					"outlettype" : [ "int", "float", "int", "int" ],
					"patching_rect" : [ 420.0, 252.0, 50.5, 18.0 ],
					"text" : "dspstate~"
				}

			}
, 			{
				"box" : 				{
					"id" : "obj-85",
					"maxclass" : "newobj",
					"numinlets" : 2,
					"numoutlets" : 1,
					"outlettype" : [ "float" ],
					"patching_rect" : [ 420.0, 300.0, 29.5, 18.0 ],
					"text" : "/ 1."
				}

			}
, 			{
				"box" : 				{
					"id" : "obj-84",
					"maxclass" : "live.tab",
					"num_lines_patching" : 1,
					"num_lines_presentation" : 0,
					"numinlets" : 1,
					"numoutlets" : 3,
					"outlettype" : [ "", "", "float" ],
					"parameter_enable" : 1,
					"patching_rect" : [ 384.0, 204.0, 100.0, 20.0 ],
					"saved_attribute_attributes" : 					{
						"valueof" : 						{
							"parameter_unitstyle" : 0,
							"parameter_longname" : "live.tab[3]",
							"parameter_mmax" : 2,
							"parameter_shortname" : "live.tab",
							"parameter_enum" : [ "50", "500", "5000" ],
							"parameter_type" : 2
						}

					}
,
					"varname" : "live.tab[3]"
				}

			}
, 			{
				"box" : 				{
					"id" : "obj-83",
					"maxclass" : "preset",
					"numinlets" : 1,
					"numoutlets" : 4,
					"outlettype" : [ "preset", "int", "preset", "int" ],
					"patching_rect" : [ 504.0, 492.0, 40.0, 16.0 ],
					"preset_data" : [ 						{
							"number" : 1,
							"data" : [ 5, "obj-42", "live.tab", "float", 1.0, 5, "obj-84", "live.tab", "float", 1.0, 5, "obj-69", "live.tab", "float", 1.0, 5, "obj-74", "live.tab", "float", 1.0, 21, "obj-48", "multislider", "list", 0.216666668653488, 0.0, 0.333333343267441, 0.0, 0.0, 0.483333319425583, 0.0, 0.0, 0.0, 0.616666674613953, 0.0, 0.0, 0.0, 0.0, 0.0, 0.0, 0.850000023841858 ]
						}
, 						{
							"number" : 2,
							"data" : [ 5, "obj-42", "live.tab", "float", 2.0, 5, "obj-84", "live.tab", "float", 2.0, 5, "obj-69", "live.tab", "float", 1.0, 5, "obj-74", "live.tab", "float", 0.0, 21, "obj-48", "multislider", "list", 0.0, 0.0, 0.0, 0.0, 0.0, 0.0, 0.0, 1.0, 1.0, 1.0, 1.0, 1.0, 1.0, 1.0, 1.0, 1.0, 1.0 ]
						}
, 						{
							"number" : 3,
							"data" : [ 5, "obj-42", "live.tab", "float", 0.0, 5, "obj-84", "live.tab", "float", 0.0, 5, "obj-69", "live.tab", "float", 2.0, 5, "obj-74", "live.tab", "float", 1.0, 21, "obj-48", "multislider", "list", 0.116666667163372, 0.0, 0.0, 0.0, 0.0, 0.0, 0.0, 0.0, 0.0, 0.0, 0.0, 0.0, 0.0, 0.0, 0.0, 0.0, 1.0 ]
						}
 ]
				}

			}
, 			{
				"box" : 				{
					"id" : "obj-82",
					"maxclass" : "comment",
					"numinlets" : 1,
					"numoutlets" : 0,
					"patching_rect" : [ 408.0, 540.0, 51.0, 16.0 ],
					"text" : "tap point"
				}

			}
, 			{
				"box" : 				{
					"id" : "obj-81",
					"maxclass" : "newobj",
					"numinlets" : 2,
					"numoutlets" : 1,
					"outlettype" : [ "float" ],
					"patching_rect" : [ 252.0, 492.0, 64.0, 18.0 ],
					"text" : "snapshot~ 33"
				}

			}
, 			{
				"box" : 				{
					"id" : "obj-79",
					"maxclass" : "comment",
					"numinlets" : 1,
					"numoutlets" : 0,
					"patching_rect" : [ 276.0, 420.0, 45.0, 16.0 ],
					"text" : "feedback"
				}

			}
, 			{
				"box" : 				{
					"id" : "obj-78",
					"maxclass" : "comment",
					"numinlets" : 1,
					"numoutlets" : 0,
					"patching_rect" : [ 312.0, 348.0, 102.0, 16.0 ],
					"text" : "interploation time [ms]"
				}

			}
, 			{
				"box" : 				{
					"id" : "obj-75",
					"maxclass" : "newobj",
					"numinlets" : 1,
					"numoutlets" : 2,
					"outlettype" : [ "signal", "float" ],
					"patching_rect" : [ 240.0, 384.0, 61.0, 18.0 ],
					"text" : "mstosamps~"
				}

			}
, 			{
				"box" : 				{
					"id" : "obj-74",
					"maxclass" : "live.tab",
					"num_lines_patching" : 1,
					"num_lines_presentation" : 0,
					"numinlets" : 1,
					"numoutlets" : 3,
					"outlettype" : [ "", "", "float" ],
					"parameter_enable" : 1,
					"patching_rect" : [ 204.0, 348.0, 100.0, 20.0 ],
					"saved_attribute_attributes" : 					{
						"valueof" : 						{
							"parameter_unitstyle" : 0,
							"parameter_longname" : "live.tab[2]",
							"parameter_mmax" : 2,
							"parameter_shortname" : "live.tab",
							"parameter_enum" : [ "5", "50", "500" ],
							"parameter_type" : 2
						}

					}
,
					"varname" : "live.tab[2]"
				}

			}
, 			{
				"box" : 				{
					"id" : "obj-73",
					"maxclass" : "newobj",
					"numinlets" : 2,
					"numoutlets" : 1,
					"outlettype" : [ "float" ],
					"patching_rect" : [ 252.0, 516.0, 38.0, 18.0 ],
					"text" : "/ 2000."
				}

			}
, 			{
				"box" : 				{
					"id" : "obj-72",
					"maxclass" : "multislider",
					"numinlets" : 1,
					"numoutlets" : 2,
					"orientation" : 0,
					"outlettype" : [ "", "" ],
					"parameter_enable" : 0,
					"patching_rect" : [ 252.0, 540.0, 144.0, 12.0 ],
					"setminmax" : [ 0.0, 1.0 ],
					"setstyle" : 1
				}

			}
, 			{
				"box" : 				{
					"id" : "obj-69",
					"maxclass" : "live.tab",
					"num_lines_patching" : 1,
					"num_lines_presentation" : 0,
					"numinlets" : 1,
					"numoutlets" : 3,
					"outlettype" : [ "", "", "float" ],
					"parameter_enable" : 1,
					"patching_rect" : [ 168.0, 420.0, 100.0, 20.0 ],
					"saved_attribute_attributes" : 					{
						"valueof" : 						{
							"parameter_unitstyle" : 0,
							"parameter_longname" : "live.tab[1]",
							"parameter_mmax" : 2,
							"parameter_shortname" : "live.tab",
							"parameter_enum" : [ "0.", "0.5", "0.95" ],
							"parameter_type" : 2
						}

					}
,
					"varname" : "live.tab[1]"
				}

			}
, 			{
				"box" : 				{
					"channels" : 1,
					"clip_size" : 1,
					"display_range" : [ -70.0, 30.0 ],
					"id" : "obj-68",
					"lastchannelcount" : 0,
					"maxclass" : "live.gain~",
					"numinlets" : 1,
					"numoutlets" : 4,
					"orientation" : 1,
					"outlettype" : [ "signal", "", "float", "list" ],
					"parameter_enable" : 1,
					"patching_rect" : [ 156.0, 576.0, 147.0, 30.0 ],
					"prototypename" : "M4L.live.gain~.H.extended",
					"saved_attribute_attributes" : 					{
						"valueof" : 						{
							"parameter_unitstyle" : 4,
							"parameter_linknames" : 1,
							"parameter_mmin" : -70.0,
							"parameter_longname" : "live.gain~",
							"parameter_initial_enable" : 1,
							"parameter_mmax" : 6.0,
							"parameter_initial" : [ -24 ],
							"parameter_shortname" : "live.gain~",
							"parameter_type" : 0
						}

					}
,
					"showname" : 0,
					"varname" : "live.gain~"
				}

			}
, 			{
				"box" : 				{
					"id" : "obj-66",
					"maxclass" : "comment",
					"numinlets" : 1,
					"numoutlets" : 0,
					"patching_rect" : [ 516.0, 228.0, 46.0, 16.0 ],
					"text" : "n periods"
				}

			}
, 			{
				"box" : 				{
					"contdata" : 1,
					"id" : "obj-48",
					"maxclass" : "multislider",
					"numinlets" : 1,
					"numoutlets" : 2,
					"outlettype" : [ "", "" ],
					"parameter_enable" : 0,
					"patching_rect" : [ 84.0, 180.0, 228.0, 60.0 ],
					"setminmax" : [ 0.0, 1.0 ],
					"setstyle" : 1,
					"size" : 17,
					"spacing" : 2
				}

			}
, 			{
				"box" : 				{
					"id" : "obj-43",
					"maxclass" : "newobj",
					"numinlets" : 2,
					"numoutlets" : 1,
					"outlettype" : [ "signal" ],
					"patching_rect" : [ 408.0, 456.0, 36.0, 18.0 ],
					"text" : "*~ 0.4"
				}

			}
, 			{
				"box" : 				{
					"id" : "obj-42",
					"maxclass" : "live.tab",
					"num_lines_patching" : 1,
					"num_lines_presentation" : 0,
					"numinlets" : 1,
					"numoutlets" : 3,
					"outlettype" : [ "", "", "float" ],
					"parameter_enable" : 1,
					"patching_rect" : [ 408.0, 228.0, 100.0, 20.0 ],
					"saved_attribute_attributes" : 					{
						"valueof" : 						{
							"parameter_unitstyle" : 0,
							"parameter_longname" : "live.tab",
							"parameter_mmax" : 2,
							"parameter_shortname" : "live.tab",
							"parameter_enum" : [ "1", "5", "20" ],
							"parameter_type" : 2
						}

					}
,
					"varname" : "live.tab"
				}

			}
, 			{
				"box" : 				{
					"color" : [ 1.0, 1.0, 0.400000035762787, 1.0 ],
					"id" : "obj-36",
					"maxclass" : "newobj",
					"numinlets" : 4,
					"numoutlets" : 5,
					"outlettype" : [ "signal", "signal", "signal", "signal", "bang" ],
					"patching_rect" : [ 468.0, 324.0, 102.0, 18.0 ],
					"saved_object_attributes" : 					{
						"active" : 1,
						"err_msg" : 0,
						"f0(folded)" : 1.0,
						"f1(folded)" : 4.0,
						"fold0(abs.,clipped)" : 1.0,
						"fold1(abs.,clipped)" : 22050.0,
						"ignore_0PDF" : 0,
						"proc_time" : 0
					}
,
					"text" : "jeynoise~ @f0 1 @f1 4"
				}

			}
, 			{
				"box" : 				{
					"id" : "obj-30",
					"maxclass" : "newobj",
					"numinlets" : 3,
					"numoutlets" : 1,
					"outlettype" : [ "signal" ],
					"patching_rect" : [ 156.0, 384.0, 80.0, 18.0 ],
					"text" : "slide~ 1000 1000"
				}

			}
, 			{
				"box" : 				{
					"id" : "obj-45",
					"maxclass" : "newobj",
					"numinlets" : 2,
					"numoutlets" : 1,
					"outlettype" : [ "signal" ],
					"patching_rect" : [ 420.0, 408.0, 43.0, 18.0 ],
					"text" : "+~ 0.25"
				}

			}
, 			{
				"box" : 				{
					"id" : "obj-24",
					"maxclass" : "newobj",
					"numinlets" : 1,
					"numoutlets" : 1,
					"outlettype" : [ "signal" ],
					"patching_rect" : [ 420.0, 324.0, 26.0, 18.0 ],
					"text" : "sig~"
				}

			}
, 			{
				"box" : 				{
					"id" : "obj-25",
					"maxclass" : "newobj",
					"numinlets" : 2,
					"numoutlets" : 1,
					"outlettype" : [ "signal" ],
					"patching_rect" : [ 408.0, 432.0, 35.0, 18.0 ],
					"text" : "cycle~"
				}

			}
, 			{
				"box" : 				{
					"id" : "obj-26",
					"maxclass" : "newobj",
					"numinlets" : 3,
					"numoutlets" : 1,
					"outlettype" : [ "signal" ],
					"patching_rect" : [ 420.0, 384.0, 44.0, 18.0 ],
					"text" : "clip~ 0 1"
				}

			}
, 			{
				"box" : 				{
					"id" : "obj-27",
					"maxclass" : "newobj",
					"numinlets" : 2,
					"numoutlets" : 1,
					"outlettype" : [ "signal" ],
					"patching_rect" : [ 420.0, 360.0, 29.5, 18.0 ],
					"text" : "+=~"
				}

			}
, 			{
				"box" : 				{
					"id" : "obj-19",
					"maxclass" : "newobj",
					"numinlets" : 2,
					"numoutlets" : 1,
					"outlettype" : [ "signal" ],
					"patching_rect" : [ 180.0, 456.0, 29.5, 18.0 ],
					"text" : "*~"
				}

			}
, 			{
				"box" : 				{
					"id" : "obj-15",
					"maxclass" : "newobj",
					"numinlets" : 1,
					"numoutlets" : 1,
					"outlettype" : [ "signal" ],
					"patching_rect" : [ 156.0, 528.0, 41.0, 18.0 ],
					"text" : "tapout~"
				}

			}
, 			{
				"box" : 				{
					"id" : "obj-14",
					"maxclass" : "newobj",
					"numinlets" : 1,
					"numoutlets" : 1,
					"outlettype" : [ "tapconnect" ],
					"patching_rect" : [ 180.0, 492.0, 58.0, 18.0 ],
					"text" : "tapin~ 1000"
				}

			}
, 			{
				"box" : 				{
					"id" : "obj-13",
					"maxclass" : "comment",
					"numinlets" : 1,
					"numoutlets" : 0,
					"patching_rect" : [ 276.0, 312.0, 35.0, 16.0 ],
					"text" : "T [ms]"
				}

			}
, 			{
				"box" : 				{
					"fontface" : 0,
					"fontname" : "Verdana",
					"fontsize" : 8.0,
					"id" : "obj-11",
					"maxclass" : "number~",
					"mode" : 2,
					"numinlets" : 2,
					"numoutlets" : 2,
					"outlettype" : [ "signal", "float" ],
					"patching_rect" : [ 216.0, 312.0, 56.0, 18.0 ],
					"sig" : 0.0
				}

			}
, 			{
				"box" : 				{
					"id" : "obj-10",
					"maxclass" : "comment",
					"numinlets" : 1,
					"numoutlets" : 0,
					"patching_rect" : [ 276.0, 288.0, 32.0, 16.0 ],
					"text" : "f [Hz]"
				}

			}
, 			{
				"box" : 				{
					"id" : "obj-8",
					"maxclass" : "newobj",
					"numinlets" : 2,
					"numoutlets" : 1,
					"outlettype" : [ "signal" ],
					"patching_rect" : [ 156.0, 312.0, 45.0, 18.0 ],
					"text" : "!/~ 1000"
				}

			}
, 			{
				"box" : 				{
					"fontface" : 0,
					"fontname" : "Verdana",
					"fontsize" : 8.0,
					"id" : "obj-7",
					"maxclass" : "number~",
					"mode" : 2,
					"numinlets" : 2,
					"numoutlets" : 2,
					"outlettype" : [ "signal", "float" ],
					"patching_rect" : [ 216.0, 288.0, 56.0, 18.0 ],
					"sig" : 0.0
				}

			}
, 			{
				"box" : 				{
					"id" : "obj-2",
					"maxclass" : "newobj",
					"numinlets" : 2,
					"numoutlets" : 1,
					"outlettype" : [ "signal" ],
					"patching_rect" : [ 156.0, 288.0, 29.5, 18.0 ],
					"text" : "sah~"
				}

			}
, 			{
				"box" : 				{
					"color" : [ 1.0, 1.0, 0.400000035762787, 1.0 ],
					"id" : "obj-1",
					"maxclass" : "newobj",
					"numinlets" : 4,
					"numoutlets" : 5,
					"outlettype" : [ "signal", "signal", "signal", "signal", "bang" ],
					"patching_rect" : [ 84.0, 252.0, 161.0, 18.0 ],
					"saved_object_attributes" : 					{
						"active" : 1,
						"err_msg" : 0,
						"f0(folded)" : 0.5,
						"f1(folded)" : 20.0,
						"fold0(abs.,clipped)" : 0.5,
						"fold1(abs.,clipped)" : 22050.0,
						"ignore_0PDF" : 0,
						"proc_time" : 0
					}
,
					"text" : "jeynoise~ @f0 0.5 @f1 20 @fold0 0.5"
				}

			}
, 			{
				"box" : 				{
					"background" : 1,
					"bgcolor" : [ 1.0, 0.788235, 0.470588, 1.0 ],
					"fontface" : 1,
					"hint" : "",
					"id" : "obj-17",
					"ignoreclick" : 1,
					"legacytextcolor" : 1,
					"maxclass" : "textbutton",
					"numinlets" : 1,
					"numoutlets" : 3,
					"outlettype" : [ "", "", "int" ],
					"parameter_enable" : 0,
					"patching_rect" : [ 480.0, 492.0, 20.0, 20.0 ],
					"rounded" : 60.0,
					"text" : "6",
					"textcolor" : [ 0.34902, 0.34902, 0.34902, 1.0 ]
				}

			}
, 			{
				"box" : 				{
					"background" : 1,
					"bgcolor" : [ 1.0, 0.788235, 0.470588, 1.0 ],
					"fontface" : 1,
					"hint" : "",
					"id" : "obj-18",
					"ignoreclick" : 1,
					"legacytextcolor" : 1,
					"maxclass" : "textbutton",
					"numinlets" : 1,
					"numoutlets" : 3,
					"outlettype" : [ "", "", "int" ],
					"parameter_enable" : 0,
					"patching_rect" : [ 384.0, 228.0, 20.0, 20.0 ],
					"rounded" : 60.0,
					"text" : "5",
					"textcolor" : [ 0.34902, 0.34902, 0.34902, 1.0 ]
				}

			}
, 			{
				"box" : 				{
					"background" : 1,
					"bgcolor" : [ 1.0, 0.788235, 0.470588, 1.0 ],
					"fontface" : 1,
					"hint" : "",
					"id" : "obj-20",
					"ignoreclick" : 1,
					"legacytextcolor" : 1,
					"maxclass" : "textbutton",
					"numinlets" : 1,
					"numoutlets" : 3,
					"outlettype" : [ "", "", "int" ],
					"parameter_enable" : 0,
					"patching_rect" : [ 360.0, 204.0, 20.0, 20.0 ],
					"rounded" : 60.0,
					"text" : "4",
					"textcolor" : [ 0.34902, 0.34902, 0.34902, 1.0 ]
				}

			}
, 			{
				"box" : 				{
					"background" : 1,
					"bgcolor" : [ 1.0, 0.788235, 0.470588, 1.0 ],
					"fontface" : 1,
					"hint" : "",
					"id" : "obj-3",
					"ignoreclick" : 1,
					"legacytextcolor" : 1,
					"maxclass" : "textbutton",
					"numinlets" : 1,
					"numoutlets" : 3,
					"outlettype" : [ "", "", "int" ],
					"parameter_enable" : 0,
					"patching_rect" : [ 144.0, 420.0, 20.0, 20.0 ],
					"rounded" : 60.0,
					"text" : "3",
					"textcolor" : [ 0.34902, 0.34902, 0.34902, 1.0 ]
				}

			}
, 			{
				"box" : 				{
					"background" : 1,
					"bgcolor" : [ 1.0, 0.788235, 0.470588, 1.0 ],
					"fontface" : 1,
					"hint" : "",
					"id" : "obj-40",
					"ignoreclick" : 1,
					"legacytextcolor" : 1,
					"maxclass" : "textbutton",
					"numinlets" : 1,
					"numoutlets" : 3,
					"outlettype" : [ "", "", "int" ],
					"parameter_enable" : 0,
					"patching_rect" : [ 180.0, 348.0, 20.0, 20.0 ],
					"rounded" : 60.0,
					"text" : "2",
					"textcolor" : [ 0.34902, 0.34902, 0.34902, 1.0 ]
				}

			}
, 			{
				"box" : 				{
					"background" : 1,
					"bgcolor" : [ 1.0, 0.788235, 0.470588, 1.0 ],
					"fontface" : 1,
					"hint" : "",
					"id" : "obj-21",
					"ignoreclick" : 1,
					"legacytextcolor" : 1,
					"maxclass" : "textbutton",
					"numinlets" : 1,
					"numoutlets" : 3,
					"outlettype" : [ "", "", "int" ],
					"parameter_enable" : 0,
					"patching_rect" : [ 60.0, 192.0, 20.0, 20.0 ],
					"rounded" : 60.0,
					"text" : "1",
					"textcolor" : [ 0.34902, 0.34902, 0.34902, 1.0 ]
				}

			}
 ],
		"lines" : [ 			{
				"patchline" : 				{
					"destination" : [ "obj-2", 1 ],
					"order" : 0,
					"source" : [ "obj-1", 2 ]
				}

			}
, 			{
				"patchline" : 				{
					"destination" : [ "obj-2", 0 ],
					"order" : 1,
					"source" : [ "obj-1", 2 ]
				}

			}
, 			{
				"patchline" : 				{
					"destination" : [ "obj-15", 0 ],
					"source" : [ "obj-14", 0 ]
				}

			}
, 			{
				"patchline" : 				{
					"destination" : [ "obj-19", 0 ],
					"midpoints" : [ 165.5, 556.0, 141.5, 556.0, 141.5, 445.0, 189.5, 445.0 ],
					"order" : 0,
					"source" : [ "obj-15", 0 ]
				}

			}
, 			{
				"patchline" : 				{
					"destination" : [ "obj-68", 0 ],
					"order" : 1,
					"source" : [ "obj-15", 0 ]
				}

			}
, 			{
				"patchline" : 				{
					"destination" : [ "obj-14", 0 ],
					"source" : [ "obj-19", 0 ]
				}

			}
, 			{
				"patchline" : 				{
					"destination" : [ "obj-7", 0 ],
					"order" : 0,
					"source" : [ "obj-2", 0 ]
				}

			}
, 			{
				"patchline" : 				{
					"destination" : [ "obj-8", 0 ],
					"order" : 1,
					"source" : [ "obj-2", 0 ]
				}

			}
, 			{
				"patchline" : 				{
					"destination" : [ "obj-27", 0 ],
					"source" : [ "obj-24", 0 ]
				}

			}
, 			{
				"patchline" : 				{
					"destination" : [ "obj-43", 0 ],
					"source" : [ "obj-25", 0 ]
				}

			}
, 			{
				"patchline" : 				{
					"destination" : [ "obj-45", 0 ],
					"source" : [ "obj-26", 0 ]
				}

			}
, 			{
				"patchline" : 				{
					"destination" : [ "obj-26", 0 ],
					"source" : [ "obj-27", 0 ]
				}

			}
, 			{
				"patchline" : 				{
					"destination" : [ "obj-22", 0 ],
					"hidden" : 1,
					"source" : [ "obj-28", 0 ]
				}

			}
, 			{
				"patchline" : 				{
					"destination" : [ "obj-15", 0 ],
					"order" : 1,
					"source" : [ "obj-30", 0 ]
				}

			}
, 			{
				"patchline" : 				{
					"destination" : [ "obj-81", 0 ],
					"order" : 0,
					"source" : [ "obj-30", 0 ]
				}

			}
, 			{
				"patchline" : 				{
					"destination" : [ "obj-27", 1 ],
					"midpoints" : [ 519.0, 350.5, 440.0, 350.5 ],
					"source" : [ "obj-36", 2 ]
				}

			}
, 			{
				"patchline" : 				{
					"destination" : [ "obj-83", 0 ],
					"hidden" : 1,
					"source" : [ "obj-4", 0 ]
				}

			}
, 			{
				"patchline" : 				{
					"destination" : [ "obj-26", 2 ],
					"source" : [ "obj-42", 1 ]
				}

			}
, 			{
				"patchline" : 				{
					"destination" : [ "obj-14", 0 ],
					"midpoints" : [ 417.5, 482.5, 189.5, 482.5 ],
					"source" : [ "obj-43", 0 ]
				}

			}
, 			{
				"patchline" : 				{
					"destination" : [ "obj-25", 1 ],
					"source" : [ "obj-45", 0 ]
				}

			}
, 			{
				"patchline" : 				{
					"destination" : [ "obj-1", 0 ],
					"source" : [ "obj-48", 0 ]
				}

			}
, 			{
				"patchline" : 				{
					"destination" : [ "obj-85", 0 ],
					"source" : [ "obj-6", 0 ]
				}

			}
, 			{
				"patchline" : 				{
					"destination" : [ "obj-28", 0 ],
					"hidden" : 1,
					"source" : [ "obj-63", 0 ]
				}

			}
, 			{
				"patchline" : 				{
					"destination" : [ "obj-5", 1 ],
					"order" : 0,
					"source" : [ "obj-68", 0 ]
				}

			}
, 			{
				"patchline" : 				{
					"destination" : [ "obj-5", 0 ],
					"order" : 1,
					"source" : [ "obj-68", 0 ]
				}

			}
, 			{
				"patchline" : 				{
					"destination" : [ "obj-19", 1 ],
					"source" : [ "obj-69", 1 ]
				}

			}
, 			{
				"patchline" : 				{
					"destination" : [ "obj-72", 0 ],
					"source" : [ "obj-73", 0 ]
				}

			}
, 			{
				"patchline" : 				{
					"destination" : [ "obj-75", 0 ],
					"source" : [ "obj-74", 1 ]
				}

			}
, 			{
				"patchline" : 				{
					"destination" : [ "obj-30", 2 ],
					"order" : 0,
					"source" : [ "obj-75", 1 ]
				}

			}
, 			{
				"patchline" : 				{
					"destination" : [ "obj-30", 1 ],
					"order" : 1,
					"source" : [ "obj-75", 1 ]
				}

			}
, 			{
				"patchline" : 				{
					"destination" : [ "obj-11", 0 ],
					"order" : 0,
					"source" : [ "obj-8", 0 ]
				}

			}
, 			{
				"patchline" : 				{
					"destination" : [ "obj-30", 0 ],
					"order" : 1,
					"source" : [ "obj-8", 0 ]
				}

			}
, 			{
				"patchline" : 				{
					"destination" : [ "obj-73", 0 ],
					"source" : [ "obj-81", 0 ]
				}

			}
, 			{
				"patchline" : 				{
					"color" : [ 0.996078431372549, 0.996078431372549, 0.996078431372549, 0.45 ],
					"destination" : [ "obj-42", 0 ],
					"hidden" : 1,
					"order" : 0,
					"source" : [ "obj-83", 0 ]
				}

			}
, 			{
				"patchline" : 				{
					"color" : [ 0.996078431372549, 0.996078431372549, 0.996078431372549, 0.45 ],
					"destination" : [ "obj-48", 0 ],
					"hidden" : 1,
					"order" : 4,
					"source" : [ "obj-83", 0 ]
				}

			}
, 			{
				"patchline" : 				{
					"color" : [ 0.996078431372549, 0.996078431372549, 0.996078431372549, 0.45 ],
					"destination" : [ "obj-69", 0 ],
					"hidden" : 1,
					"order" : 3,
					"source" : [ "obj-83", 0 ]
				}

			}
, 			{
				"patchline" : 				{
					"color" : [ 0.996078431372549, 0.996078431372549, 0.996078431372549, 0.45 ],
					"destination" : [ "obj-74", 0 ],
					"hidden" : 1,
					"order" : 2,
					"source" : [ "obj-83", 0 ]
				}

			}
, 			{
				"patchline" : 				{
					"color" : [ 0.996078431372549, 0.996078431372549, 0.996078431372549, 0.45 ],
					"destination" : [ "obj-84", 0 ],
					"hidden" : 1,
					"order" : 1,
					"source" : [ "obj-83", 0 ]
				}

			}
, 			{
				"patchline" : 				{
					"destination" : [ "obj-6", 0 ],
					"source" : [ "obj-84", 1 ]
				}

			}
, 			{
				"patchline" : 				{
					"destination" : [ "obj-24", 0 ],
					"source" : [ "obj-85", 0 ]
				}

			}
, 			{
				"patchline" : 				{
					"destination" : [ "obj-6", 1 ],
					"source" : [ "obj-86", 1 ]
				}

			}
, 			{
				"patchline" : 				{
					"destination" : [ "obj-14", 0 ],
					"source" : [ "obj-98", 0 ]
				}

			}
 ],
		"parameters" : 		{
			"obj-74" : [ "live.tab[2]", "live.tab", 0 ],
			"obj-69" : [ "live.tab[1]", "live.tab", 0 ],
			"obj-42" : [ "live.tab", "live.tab", 0 ],
			"obj-68" : [ "live.gain~", "live.gain~", 0 ],
			"obj-84" : [ "live.tab[3]", "live.tab", 0 ],
			"parameterbanks" : 			{

			}

		}
,
		"dependency_cache" : [ 			{
				"name" : "title_jvkr.maxpat",
				"bootpath" : "/Volumes/mux/People/jvkr/MaxStuff/_experimenting/2019/0214 jey_tests/jvkr jey patches/signal",
				"patcherrelativepath" : ".",
				"type" : "JSON",
				"implicit" : 1
			}
, 			{
				"name" : "p_name.js",
				"bootpath" : "/Volumes/mux/People/jvkr/MaxStuff/_experimenting/2019/0214 jey_tests/jvkr jey patches/signal",
				"patcherrelativepath" : ".",
				"type" : "TEXT",
				"implicit" : 1
			}
, 			{
				"name" : "jeynoise~.mxo",
				"type" : "iLaX"
			}
 ],
		"autosave" : 0,
		"styles" : [ 			{
				"name" : "jpatcher001",
				"default" : 				{
					"bgcolor" : [ 0.095481, 0.100396, 0.100293, 0.36 ],
					"color" : [ 0.8, 0.8, 0.8, 1.0 ],
					"bgfillcolor" : 					{
						"type" : "color",
						"color1" : [ 0.65098, 0.666667, 0.662745, 0.64 ],
						"color2" : [ 0.0, 0.0, 0.0, 0.65 ],
						"color" : [ 0.0, 0.0, 0.0, 0.45 ],
						"angle" : 270.0,
						"proportion" : 0.39
					}
,
					"textcolor" : [ 0.0, 0.0, 0.0, 0.690196 ],
					"fontsize" : [ 8.0 ],
					"patchlinecolor" : [ 0.239216, 0.254902, 0.278431, 0.45 ],
					"accentcolor" : [ 1.0, 1.0, 1.0, 0.25 ],
					"fontname" : [ "Verdana" ]
				}
,
				"parentstyle" : "",
				"multi" : 0
			}
, 			{
				"name" : "jx.style",
				"default" : 				{
					"bgcolor" : [ 0.095481, 0.100396, 0.100293, 0.36 ],
					"color" : [ 0.8, 0.8, 0.8, 1.0 ],
					"bgfillcolor" : 					{
						"type" : "color",
						"color1" : [ 0.65098, 0.666667, 0.662745, 0.64 ],
						"color2" : [ 0.0, 0.0, 0.0, 0.65 ],
						"color" : [ 0.0, 0.0, 0.0, 0.45 ],
						"angle" : 270.0,
						"proportion" : 0.39
					}
,
					"textcolor" : [ 0.0, 0.0, 0.0, 0.690196 ],
					"fontsize" : [ 8.0 ],
					"patchlinecolor" : [ 0.239216, 0.254902, 0.278431, 0.45 ],
					"accentcolor" : [ 1.0, 1.0, 1.0, 0.25 ],
					"fontname" : [ "Verdana" ]
				}
,
				"parentstyle" : "jpatcher001",
				"multi" : 0
			}
 ],
		"toolbaradditions" : [ "transport", "audiomute", "audiosolo" ],
		"toolbarexclusions" : [ "transport", "audiomute", "audiosolo" ],
		"bgcolor" : [ 0.65098, 0.666667, 0.662745, 1.0 ],
		"editing_bgcolor" : [ 0.65098, 0.666667, 0.662745, 1.0 ]
	}

}
